<svg width="366" height="366" viewBox="0 0 366 366" fill="none" xmlns="http://www.w3.org/2000/svg">
<path d="M0 183C0 81.948 81.948 0 183 0C284.052 0 366 81.948 366 183C366 284.052 284.052 366 183 366C81.948 366 0 284.052 0 183Z" fill="#FFEFD6"/>
<path d="M67.8596 80.9153C70.4412 79.3663 78.6286 89.324 80.7677 90.2091C81.8741 90.6517 83.7181 90.2829 85.5621 92.0531C87.9962 94.3397 87.4062 97.5851 88.365 98.3965C93.012 102.38 104.445 114.624 110.051 119.566C111.305 120.672 112.632 121.926 113.96 123.18C119.197 128.27 106.363 136.457 104.666 134.465C97.8064 126.278 83.0543 104.15 80.9152 100.904C80.9152 100.904 72.8753 92.3481 71.1051 90.1353C70.1462 88.6601 65.278 82.4642 67.8596 80.9153Z" fill="#E2A379"/>
<path d="M128.122 139.629C122.443 133.285 119.123 128.712 113.001 122.074C112.116 124.508 105.773 132.179 103.781 133.433C105.625 135.277 117.353 151.578 117.353 151.578C119.492 154.676 151.578 191.704 159.323 194.875C162.126 196.129 164.707 197.088 166.92 197.678C171.198 198.859 181.377 176.952 176.657 173.19C165.003 167.289 146.267 153.053 141.03 149.144C136.31 145.603 128.122 139.629 128.122 139.629Z" fill="#333333"/>
<path d="M284.273 267.972C284.494 265.759 276.676 264.505 269.3 263.325C266.571 262.883 261.702 261.629 261.702 261.629C253.146 255.212 247.983 250.417 247.983 250.417C238.173 238.615 222.978 215.75 218.11 212.504C213.242 209.259 205.644 218.257 209.554 222.609C213.463 226.961 217.225 231.313 221.429 235.296C227.109 242.894 237.804 253.441 241.344 257.203C247.098 263.325 254.548 266.054 254.548 266.054C254.548 266.054 260.965 270.037 263.399 270.996C265.907 271.955 269.3 272.693 272.545 271.955C275.127 271.365 283.978 270.775 284.273 267.972Z" fill="#E2A379"/>
<path d="M192.073 229.1C198.416 235.591 205.276 231.682 215.676 234.854C217.004 235.222 223.2 233.452 225.265 231.387C227.552 229.1 229.543 226.297 229.322 222.683C229.174 219.88 227.183 212.652 212.726 203.21C206.382 198.416 196.277 189.196 183.517 178.796C178.87 177.984 166.699 171.124 166.699 171.124C160.724 169.871 156.225 190.228 156.225 190.228C174.665 210.734 183.885 214.938 189.491 222.167C189.491 222.167 190.229 227.256 192.073 229.1Z" fill="#501B38"/>
<path d="M220.101 235.886C220.101 235.886 226.445 238.689 231.756 241.714L239.058 235.001C233.452 232.346 228.658 225.855 228.658 225.855C222.978 233.231 218.036 233.747 215.676 234.854L220.101 235.886Z" fill="#E2A379"/>
<path d="M248.795 253.589C252.778 256.097 256.392 253.958 258.457 252.482C264.801 247.836 265.022 243.41 264.506 237.73C263.768 230.281 243.853 229.248 240.607 230.281C232.125 232.788 229.912 244.959 230.207 249.901C230.576 255.285 232.272 253.736 234.411 253.368C234.485 253.368 234.854 253.589 234.854 253.589C235.591 253.515 236.624 253.368 237.583 253.81C237.583 253.81 238.247 253.589 238.616 253.515C238.837 253.441 238.984 253.515 239.132 253.736C239.501 254.474 239.796 255.212 240.165 255.507C241.271 256.318 246.951 252.482 248.795 253.589Z" fill="#F4B382"/>
<path d="M236.403 250.712C236.403 250.712 236.108 251.228 236.329 253.663C236.476 253.958 236.845 254.474 237.509 253.958C238.025 253.589 236.771 252.409 236.403 250.712Z" fill="#D6876B"/>
<path d="M236.402 250.712C236.402 250.712 235.222 251.302 234.854 253.589C234.927 253.884 235.222 254.105 235.37 254.179C236.107 254.4 236.329 253.663 236.329 253.663C236.181 251.228 236.402 250.712 236.402 250.712Z" fill="#CC785E"/>
<path d="M265.759 237.14C264.874 228.068 250.638 217.151 236.329 231.018C235.37 231.977 234.337 233.969 236.698 236.55C238.394 238.394 240.533 239.574 240.533 239.574C241.197 239.943 241.861 240.312 242.598 240.681C243.41 241.123 247.835 240.091 248.057 240.976C250.269 249.753 255.359 253.146 257.793 252.925C263.399 251.376 266.644 246.877 265.759 237.14Z" fill="#CAB69E"/>
<path d="M243.041 237.804C239.132 239.574 239.132 241.271 239.501 243.631L245.623 241.713L248.057 240.238C247.614 237.878 246.95 236.108 243.041 237.804Z" fill="#F4B382"/>
<path d="M250.565 224.232C252.188 221.946 256.687 222.536 260.596 225.486C264.506 228.51 266.35 232.788 264.727 235.075C263.104 237.362 259.637 236.403 255.728 233.452C251.893 230.428 248.942 226.519 250.565 224.232Z" fill="#4C230C"/>
<path d="M247.246 242.008C247.983 241.787 248.647 241.713 249.163 241.713C249.901 241.64 250.417 241.713 250.417 241.713L249.237 239.132C248.868 239.132 248.426 239.206 248.057 239.206C248.057 239.206 248.204 239.501 248.352 239.943V239.869C247.762 240.312 246.95 240.828 245.623 241.418C245.623 241.566 244.959 242.599 247.246 242.008Z" fill="#CAB69E"/>
<path d="M250.712 222.683C252.409 220.249 257.277 220.987 261.555 224.232C265.833 227.551 267.972 232.125 266.202 234.559C264.506 236.993 260.744 235.886 256.466 232.641C252.188 229.322 248.942 225.117 250.712 222.683Z" fill="#CAB69E"/>
<path d="M258.899 223.421C259.121 223.126 260.301 223.716 261.629 224.749C262.956 225.781 263.841 226.814 263.694 227.035C263.473 227.33 262.514 226.74 261.186 225.781C259.858 224.749 258.752 223.716 258.899 223.421Z" fill="#CAB69E"/>
<path d="M298.878 281.028C299.099 278.815 291.502 277.561 283.904 276.381C281.175 275.938 276.307 274.684 276.307 274.684C256.834 262.809 248.425 253.736 248.425 253.736C238.615 241.935 223.052 215.823 218.184 212.578C213.315 209.332 205.718 218.331 209.627 222.683C212.873 228.215 215.602 231.903 220.986 237.583C230.575 249.384 238.32 256.76 241.787 260.522C247.54 266.644 269.152 279.184 269.152 279.184C269.152 279.184 275.569 283.167 278.003 284.126C280.511 285.085 283.904 285.822 287.15 285.084C289.658 284.347 298.583 283.757 298.878 281.028Z" fill="#F4B382"/>
<path d="M89.619 284.495C87.1112 284.421 85.3409 283.388 82.243 283.019C78.4074 282.503 71.9902 283.093 71.4001 282.282C69.9249 280.069 71.6952 276.455 73.6867 274.906C75.2357 273.726 77.006 272.988 77.6698 271.955C81.1365 266.866 93.2333 253.073 97.5114 247.024C98.4703 245.623 99.5767 244.221 100.683 242.82C105.256 237.066 114.034 249.901 112.19 251.819C104.814 259.49 85.3409 273.947 82.3905 276.381C82.3905 276.381 100.167 280.88 98.1015 282.798C96.9951 283.904 92.6432 284.495 89.619 284.495Z" fill="#F4B382"/>
<path d="M117.132 225.265C110.862 231.092 105.33 236.993 100.831 242.746C103.265 243.557 111.083 249.827 112.337 251.745C114.181 249.827 129.302 235.813 129.302 235.813C134.097 231.387 162.568 205.571 168.838 195.392C170.534 192.81 171.862 190.45 172.821 188.311C174.739 184.254 154.75 170.682 150.176 174.665C142.432 185.139 131.884 207.415 128.638 212.43C125.54 217.594 117.132 225.265 117.132 225.265Z" fill="#3D3C3C"/>
<path d="M183.516 178.796C171.567 167.584 165.518 168.174 158.954 169.502C158.954 169.502 152.758 170.977 148.922 174.222C141.03 180.935 141.251 189.712 141.251 189.712C141.251 189.712 154.897 208.669 158.88 205.128C162.125 202.252 165.15 199.596 167.879 197.31C170.977 194.728 183.516 178.796 183.516 178.796Z" fill="#3D3C3C"/>
</svg>
