<?xml version="1.0" standalone="no"?>
<!DOCTYPE svg PUBLIC "-//W3C//DTD SVG 20010904//EN"
 "http://www.w3.org/TR/2001/REC-SVG-20010904/DTD/svg10.dtd">
<svg version="1.0" xmlns="http://www.w3.org/2000/svg"
 width="1668.000000pt" height="2224.000000pt" viewBox="0 0 1668.000000 2224.000000"
 preserveAspectRatio="xMidYMid meet">

<g transform="translate(0.000000,2224.000000) scale(0.100000,-0.100000)"
fill="#000000" stroke="none">
<path d="M6603 20313 c-7 -3 -13 -15 -13 -27 0 -28 -69 -94 -141 -135 -31 -17
-62 -38 -69 -46 -7 -8 -18 -15 -26 -15 -7 0 -32 -27 -54 -60 -31 -45 -39 -66
-34 -85 l6 -25 -47 14 c-46 14 -68 26 -49 26 5 0 -46 27 -112 60 -73 36 -128
58 -138 54 -20 -8 -81 -90 -103 -140 -15 -33 -17 -67 -16 -228 l3 -188 -23 16
c-37 27 -149 83 -200 100 -43 14 -72 15 -254 6 -200 -11 -208 -10 -258 10 -70
28 -121 24 -149 -13 l-20 -27 27 -54 c15 -30 27 -70 27 -92 1 -21 7 -66 14
-99 8 -33 25 -112 39 -175 28 -124 71 -240 110 -292 14 -18 32 -48 41 -66 10
-18 33 -51 52 -72 l35 -39 -48 -6 c-152 -20 -251 -41 -360 -77 -67 -22 -129
-45 -138 -52 -16 -12 -23 -80 -14 -129 3 -16 -9 -23 -71 -41 -41 -12 -98 -35
-125 -50 -28 -16 -87 -49 -132 -73 -68 -36 -83 -49 -93 -78 -15 -46 3 -78 77
-136 32 -25 86 -79 119 -120 62 -76 117 -119 238 -182 38 -21 63 -37 56 -37
-7 0 -52 -39 -99 -87 -96 -97 -240 -203 -276 -203 -13 0 -31 -7 -39 -16 -26
-25 -4 -51 51 -59 26 -4 82 -17 123 -30 41 -13 102 -29 135 -35 33 -7 83 -24
110 -39 52 -29 159 -78 332 -152 57 -24 102 -46 102 -49 0 -3 -23 -16 -52 -30
-28 -14 -78 -52 -111 -85 -131 -133 -172 -234 -185 -455 -7 -111 -13 -156 -29
-192 -16 -36 -17 -46 -6 -41 9 3 14 -2 14 -16 0 -37 27 -36 70 3 l39 35 163
-4 c90 -3 178 -7 195 -10 33 -6 146 12 256 41 69 18 172 67 267 128 36 23 84
53 108 66 23 13 42 27 42 31 0 4 24 24 53 45 35 25 45 29 32 14 -17 -20 -18
-23 -2 -17 14 5 17 0 17 -36 0 -62 25 -134 68 -196 38 -55 133 -122 292 -205
93 -49 114 -73 145 -174 49 -161 53 -163 87 -36 20 73 26 83 81 134 140 129
210 205 229 248 27 60 46 178 40 242 -4 49 -4 52 14 42 11 -6 36 -29 56 -51
21 -22 51 -47 69 -56 17 -9 52 -32 77 -52 26 -20 72 -47 102 -60 30 -13 75
-34 100 -46 41 -19 67 -21 310 -27 260 -6 267 -7 324 -33 32 -15 80 -47 108
-72 31 -28 60 -45 75 -45 24 0 25 2 18 43 -17 105 -24 179 -25 265 0 78 -5
109 -31 185 -17 51 -46 119 -63 151 -40 78 -155 193 -231 234 -33 17 -54 32
-47 32 16 0 184 71 382 160 124 56 256 96 422 130 38 7 63 19 73 33 20 29 5
44 -52 53 -56 8 -178 97 -295 214 l-77 78 92 52 c100 58 149 99 204 173 20 27
67 73 105 104 80 64 95 88 82 135 -8 28 -24 41 -104 86 -150 83 -209 110 -282
129 -53 14 -68 21 -64 33 24 72 30 102 20 117 -23 37 -286 109 -508 138 l-48
7 35 36 c87 91 174 352 176 528 1 78 13 110 78 216 58 94 63 118 33 148 -26
26 -75 26 -141 -1 -50 -19 -61 -20 -261 -9 l-208 10 -78 -30 c-43 -16 -99 -43
-125 -60 l-48 -30 3 152 c3 180 -9 232 -72 321 -60 83 -62 83 -176 37 l-98
-39 -67 62 c-36 34 -88 80 -116 102 -30 23 -65 64 -84 97 -33 58 -44 68 -66
61z m-83 -1669 c0 -8 -4 -12 -10 -9 -5 3 -10 10 -10 16 0 5 5 9 10 9 6 0 10
-7 10 -16z m220 -35 c0 -19 -85 -109 -98 -104 -8 3 -16 -3 -19 -15 -3 -11 -9
-20 -14 -20 -18 0 -49 65 -49 102 0 36 0 36 29 25 22 -8 41 -7 82 5 69 20 69
20 69 7z m-308 -16 c10 -3 15 -9 12 -14 -3 -5 2 -6 10 -3 24 9 19 -10 -9 -36
l-25 -24 -36 34 c-32 32 -33 36 -17 48 10 7 24 10 33 6 8 -3 23 -9 32 -11z
m357 -170 c6 -13 18 -23 27 -23 14 0 18 6 49 84 8 22 18 36 22 32 12 -12 3
-159 -13 -208 -14 -42 -44 -84 -44 -61 0 5 -14 23 -31 40 -26 28 -28 34 -18
52 20 31 -5 54 -53 48 -41 -6 -58 10 -58 53 0 30 61 104 72 88 5 -9 8 -7 9 7
1 11 7 -5 13 -35 7 -30 18 -65 25 -77z m16 58 c3 -5 1 -12 -5 -16 -5 -3 -10 1
-10 9 0 18 6 21 15 7z m-545 -71 c17 0 19 -6 15 -52 -2 -29 -5 -62 -7 -72 -2
-15 9 -24 56 -43 66 -25 81 -36 72 -52 -4 -6 -18 -3 -39 8 -18 11 -42 22 -54
25 -20 7 -21 5 -13 -24 5 -16 8 -30 6 -30 -1 0 -19 9 -41 20 -22 11 -48 20
-60 20 -11 0 -27 5 -35 10 -13 9 -12 12 4 25 17 13 21 13 33 -5 14 -21 43 -27
43 -11 0 6 -9 25 -20 44 -32 55 -40 90 -24 118 7 13 14 38 14 54 l2 30 14 -32
c9 -21 21 -33 34 -33z m303 32 c21 -23 16 -62 -11 -96 -19 -25 -21 -26 -31 -8
-6 11 -6 24 0 33 5 7 9 31 9 52 0 41 9 46 33 19z m527 -161 c0 -83 -4 -122
-12 -129 -23 -17 -59 -24 -95 -17 -31 6 -34 8 -28 34 8 39 -12 54 -53 39 -17
-7 -34 -9 -38 -5 -10 10 26 46 40 41 7 -3 30 5 50 17 21 12 52 25 69 28 29 6
32 11 35 46 3 50 9 65 22 65 6 0 10 -44 10 -119z m-147 42 c4 -6 -5 -21 -20
-34 -23 -21 -25 -22 -19 -4 4 10 10 40 13 65 7 43 7 44 13 14 4 -17 10 -35 13
-41z m-779 -13 c5 -23 4 -30 -2 -20 -14 23 -25 77 -14 65 6 -5 13 -26 16 -45z
m456 46 c0 -2 -7 -7 -16 -10 -8 -3 -12 -2 -9 4 6 10 25 14 25 6z m-25 -76 c-8
-16 -15 -40 -15 -53 0 -14 -7 -44 -15 -67 -17 -49 -19 -64 -6 -56 5 3 12 18
15 33 11 47 28 83 39 83 5 0 34 12 64 26 41 20 57 24 66 15 6 -6 20 -11 32
-12 15 0 13 -3 -10 -11 -83 -29 -98 -38 -86 -51 8 -10 7 -17 -2 -26 -10 -10
-8 -12 8 -9 11 2 24 13 30 25 5 12 27 28 48 37 35 14 41 14 63 -1 l24 -15 -33
-18 c-108 -59 -110 -60 -149 -54 -30 5 -39 3 -44 -10 -4 -10 -2 -22 5 -29 8
-8 6 -16 -6 -29 -13 -14 -14 -21 -5 -30 9 -9 15 -9 23 -1 15 15 55 -6 68 -34
8 -18 7 -23 -4 -23 -8 0 -15 -4 -15 -9 0 -16 -77 -71 -92 -66 -7 3 -21 19 -30
35 -21 37 -50 39 -76 5 -16 -20 -29 -25 -65 -25 -53 0 -62 9 -45 44 7 17 25
30 51 38 45 14 56 31 33 54 -9 8 -14 20 -11 25 10 15 35 10 35 -6 0 -28 18
-15 24 18 4 21 -1 53 -12 88 -12 34 -16 63 -11 79 l7 25 1 -27 c1 -16 7 -28
14 -28 6 0 23 -3 35 -7 22 -5 24 -3 21 25 -2 19 3 38 15 51 26 29 29 26 11 -9z
m-472 -120 c3 -11 1 -18 -4 -14 -5 3 -9 12 -9 20 0 20 7 17 13 -6z m73 -25
c-30 -22 -19 -37 22 -28 55 11 92 8 110 -10 15 -15 13 -20 -15 -54 -36 -46
-70 -55 -75 -21 -2 12 -14 28 -28 35 -27 13 -38 35 -39 75 -1 22 2 25 20 21
20 -6 20 -7 5 -18z m714 6 c0 -12 -39 -21 -45 -11 -3 5 3 11 12 13 29 8 33 7
33 -2z m-51 -95 c-19 -32 -24 -35 -64 -32 -57 3 -71 16 -17 16 29 0 49 7 69
25 15 13 29 25 30 25 1 0 -7 -16 -18 -34z m-449 20 c0 -2 3 -11 6 -19 3 -9 -3
-16 -18 -20 -26 -7 -42 11 -26 30 10 12 38 18 38 9z m-266 -147 c-7 -12 -34 8
-34 26 0 8 6 15 13 18 14 4 30 -30 21 -44z m206 31 c0 -5 -4 -10 -10 -10 -5 0
-10 5 -10 10 0 6 5 10 10 10 6 0 10 -4 10 -10z m-313 -10 c23 0 59 -51 46 -64
-11 -11 -53 -6 -83 9 -22 11 -30 23 -30 41 0 22 3 25 23 20 12 -3 32 -6 44 -6z
m-1257 -83 c14 -5 20 -11 13 -14 -6 -2 -29 5 -50 17 -38 20 -18 19 37 -3z
m103 -122 c-56 -28 -115 -68 -159 -107 -62 -57 -66 -59 -35 -20 53 68 210 172
259 172 16 0 -7 -16 -65 -45z m311 -739 c-43 -30 -95 -67 -114 -82 -30 -24
-28 -21 10 20 45 47 142 114 169 115 8 1 -21 -23 -65 -53z m-185 -181 c-44
-70 -60 -85 -33 -32 17 34 62 97 69 97 2 0 -14 -29 -36 -65z m1373 -564 c32
-29 56 -56 54 -59 -3 -2 -48 23 -100 57 -52 33 -101 64 -110 67 -8 3 -22 16
-30 29 -28 42 118 -31 186 -94z"/>
<path d="M8716 14768 c-20 -28 -21 -44 -2 -29 13 11 29 51 21 51 -2 0 -11 -10
-19 -22z"/>
<path d="M5622 10188 c-36 -30 -59 -59 -130 -165 -18 -27 -28 -34 -46 -29 -32
8 -126 -40 -224 -115 -128 -98 -148 -112 -191 -138 -22 -13 -81 -63 -130 -110
-99 -94 -87 -71 -177 -328 -18 -51 -30 -71 -42 -71 -9 0 -25 -3 -34 -7 -12 -4
-18 -3 -18 5 0 17 -88 239 -113 283 -24 43 -184 175 -257 212 -27 14 -51 29
-54 34 -10 16 -190 138 -245 165 -28 14 -66 26 -84 26 -30 0 -40 7 -77 58 -57
77 -109 131 -143 148 -69 37 -145 -33 -231 -211 -86 -178 -97 -220 -103 -365
-3 -69 -1 -144 5 -167 l10 -42 -37 30 c-20 17 -75 54 -123 83 -70 43 -103 56
-175 70 -48 10 -101 25 -118 34 -35 17 -250 166 -282 195 -12 10 -26 16 -32
12 -12 -7 -13 -81 -2 -170 5 -33 7 -62 5 -63 -1 -2 -39 12 -83 31 -96 41 -97
31 -2 -17 37 -19 94 -56 127 -83 32 -27 111 -85 174 -128 63 -43 135 -95 160
-115 25 -20 60 -45 77 -56 75 -46 353 -327 353 -357 0 -3 -44 -8 -97 -12 -168
-12 -194 -19 -224 -55 l-27 -32 -67 83 c-59 75 -104 153 -134 232 -6 15 -15
27 -21 27 -40 0 41 -156 156 -300 48 -61 52 -69 58 -137 3 -40 2 -73 -3 -73
-28 0 -185 130 -207 172 -8 16 -43 60 -77 97 -77 84 -210 307 -253 423 -18 47
-39 97 -47 110 -20 30 -57 176 -57 222 0 25 -4 36 -15 36 -33 0 -10 -171 39
-281 13 -30 31 -81 40 -114 10 -33 44 -110 76 -172 l59 -112 -32 5 c-18 4 -48
10 -67 15 -95 23 -241 38 -385 40 l-160 3 -12 -25 c-14 -25 -10 -87 9 -148 31
-102 243 -387 400 -537 80 -78 263 -216 330 -250 137 -69 173 -78 318 -78 74
0 127 -2 116 -4 -15 -3 -17 -10 -12 -35 12 -57 100 -125 209 -159 126 -39 467
-56 547 -26 14 5 45 13 70 18 40 7 53 5 119 -27 66 -32 90 -37 240 -54 91 -10
193 -26 226 -34 47 -13 111 -16 295 -15 319 1 394 10 493 59 74 36 82 37 125
28 26 -5 148 -10 272 -11 253 -1 299 7 422 71 68 36 148 110 148 138 0 12 15
15 83 15 93 0 150 16 262 73 204 103 516 429 666 693 64 111 79 157 81 240 1
44 -2 60 -17 70 -10 7 -22 11 -27 8 -5 -3 -67 -5 -137 -5 -121 2 -172 -4 -393
-47 -26 -5 -55 -15 -63 -22 -20 -16 -19 -44 1 -61 17 -14 28 -12 209 41 91 27
249 52 303 48 l44 -3 -24 -34 c-38 -57 -103 -94 -218 -124 -178 -46 -499 -161
-595 -212 -45 -24 -59 -29 -40 -13 62 48 105 91 127 126 12 21 51 69 87 107
50 53 82 101 133 200 62 122 149 357 177 480 13 58 18 141 9 151 -13 13 -28
-8 -28 -40 0 -49 -30 -175 -52 -219 -10 -21 -33 -77 -50 -125 -41 -118 -171
-352 -234 -421 -28 -31 -63 -77 -78 -103 -35 -61 -178 -188 -211 -188 -3 0 -3
35 1 77 7 76 8 79 75 168 62 83 132 211 141 259 7 40 -20 24 -37 -21 -31 -82
-64 -143 -128 -229 l-60 -84 -18 30 c-10 16 -26 33 -37 39 -10 5 -76 15 -148
22 -71 7 -130 13 -132 14 -2 2 17 31 42 66 51 73 243 266 328 331 31 24 117
88 190 144 73 55 156 121 185 146 28 26 81 63 117 83 36 20 68 41 71 45 11 17
-151 -63 -190 -94 -61 -49 -165 -118 -165 -109 1 11 44 86 115 198 52 83 60
91 63 67 1 -15 5 -47 8 -72 9 -65 21 -27 30 94 6 84 5 96 -9 96 -9 0 -80 -47
-157 -105 -156 -117 -152 -115 -277 -145 -76 -18 -102 -30 -187 -88 -54 -37
-105 -76 -113 -87 l-15 -20 7 20 c14 38 17 214 6 296 -14 95 -42 177 -110 321
-52 111 -87 160 -132 183 -42 22 -62 19 -107 -17z m185 -189 c97 -191 108
-235 107 -414 0 -147 -1 -152 -41 -280 -59 -186 -100 -293 -125 -324 l-21 -26
7 29 c4 15 10 42 13 60 3 17 12 38 20 47 18 21 61 244 65 339 5 113 -16 98
-25 -17 -4 -54 -13 -127 -21 -163 l-13 -65 1 75 c2 120 -14 331 -30 385 -16
59 -109 213 -161 267 -20 20 -49 42 -64 49 -16 6 -29 14 -29 18 0 10 98 105
150 144 l45 35 30 -18 c22 -13 47 -51 92 -141z m-2051 -1 l71 -63 -36 -19
c-52 -27 -87 -62 -143 -145 -93 -136 -99 -157 -112 -379 l-12 -197 -13 65 c-7
36 -15 102 -18 148 -7 98 -23 110 -23 16 0 -77 47 -324 64 -339 6 -5 19 -36
28 -69 l16 -59 -23 24 c-23 24 -48 81 -107 248 -51 145 -68 227 -68 331 0 125
24 218 90 351 63 126 84 155 123 179 30 19 31 19 61 -5 17 -13 63 -52 102 -87z
m1717 -83 c56 -32 95 -74 152 -163 66 -104 72 -121 95 -303 23 -175 21 -295
-5 -450 -18 -113 -35 -135 -109 -149 -34 -6 -117 -13 -186 -16 -110 -5 -130
-4 -163 13 l-39 20 57 29 c97 48 172 141 261 319 44 88 76 166 77 186 4 69
-25 33 -91 -116 -80 -178 -111 -234 -166 -293 -50 -54 -133 -114 -123 -88 21
54 97 425 97 473 0 51 -18 18 -29 -54 -26 -162 -82 -427 -93 -441 -7 -8 -12
-24 -13 -35 0 -18 -8 -23 -45 -28 -45 -7 -190 -47 -244 -68 -15 -6 -40 -20
-53 -31 -14 -11 -29 -18 -33 -15 -9 6 -110 -192 -110 -215 0 -8 8 3 18 24 l18
40 12 -64 c6 -35 24 -85 40 -110 l29 -46 -46 10 c-60 14 -71 22 -71 51 0 36
-19 40 -50 10 -18 -17 -47 -31 -77 -36 -26 -5 -57 -12 -68 -15 -19 -6 -19 -6
1 17 29 33 51 77 60 123 l7 39 15 -29 c8 -16 21 -37 30 -47 12 -14 13 -22 4
-42 -16 -35 -1 -31 20 5 10 18 12 29 6 27 -15 -3 -64 85 -83 149 -18 60 -78
124 -145 153 -56 24 -234 71 -272 71 -15 0 -29 6 -30 13 0 6 -2 17 -2 23 -1 6
-7 18 -13 26 -15 18 -44 138 -78 328 -30 168 -32 177 -45 164 -9 -10 44 -293
79 -415 l19 -69 -31 17 c-18 9 -62 46 -98 83 -56 57 -76 88 -141 221 -42 85
-79 164 -82 176 -9 27 -35 38 -43 17 -7 -19 25 -97 97 -233 69 -131 154 -225
244 -272 l65 -34 -36 -17 c-43 -21 -151 -24 -283 -8 -129 16 -137 18 -158 53
-51 84 -65 338 -32 564 20 139 28 162 93 257 77 114 150 176 207 176 28 0 86
-38 205 -133 55 -44 116 -90 135 -101 102 -58 215 -168 239 -231 11 -27 42
-99 70 -159 l51 -108 -90 -107 c-82 -97 -159 -216 -147 -227 3 -3 22 20 44 50
35 50 136 159 236 254 29 28 38 32 55 23 40 -21 259 -280 276 -326 2 -5 7 -7
11 -3 11 10 -54 125 -112 198 -29 36 -53 73 -53 82 0 10 -13 32 -29 50 l-29
33 40 95 c22 52 52 126 66 163 21 57 36 78 96 134 39 36 96 82 126 102 30 19
78 56 106 81 93 83 154 131 197 156 23 13 43 24 45 24 2 0 22 -11 45 -25z
m-2798 -318 c61 -87 108 -167 102 -173 -6 -6 -192 120 -191 129 1 4 5 40 9 80
6 59 9 69 19 54 6 -10 34 -51 61 -90z m3861 14 c-41 -58 -106 -183 -106 -206
0 -8 -12 -22 -27 -32 -16 -9 -50 -35 -78 -58 -27 -22 -72 -57 -100 -77 -64
-47 -216 -202 -290 -296 -31 -40 -63 -76 -70 -78 -7 -3 -25 2 -39 11 -14 10
-35 15 -46 12 -16 -4 -13 3 15 36 21 24 42 64 51 97 29 102 69 200 80 196 18
-7 30 7 63 71 28 56 39 68 129 127 80 54 114 70 182 87 105 26 128 38 201 105
32 30 62 54 65 54 3 0 -10 -22 -30 -49z m-3760 -32 c66 -60 114 -83 213 -104
74 -15 100 -27 216 -100 58 -36 75 -54 105 -107 25 -44 42 -63 55 -63 21 0 56
-76 90 -191 9 -31 31 -69 57 -99 29 -33 35 -44 20 -36 -19 10 -28 9 -57 -9
l-33 -21 -59 68 c-32 36 -107 114 -167 172 -100 98 -150 138 -297 238 -36 24
-59 47 -63 63 -7 29 -84 160 -122 208 -38 46 -23 40 42 -19z m-581 -618 c39
-5 128 -25 198 -45 144 -42 176 -43 194 -6 7 14 13 19 13 12 0 -7 35 -49 78
-95 43 -45 90 -99 106 -120 16 -21 50 -55 78 -74 27 -20 47 -37 44 -40 -2 -2
-36 12 -76 32 -40 20 -106 47 -148 60 -43 12 -129 41 -192 63 -63 22 -168 52
-233 68 -132 31 -205 71 -241 133 l-20 34 65 -7 c35 -3 96 -10 134 -15z m1915
-121 c0 -5 -12 -10 -27 -9 -25 0 -26 1 -8 9 27 12 35 12 35 0z m1135 0 c18 -8
17 -9 -7 -9 -16 -1 -28 4 -28 9 0 12 8 12 35 0z m-2944 -90 c55 -11 143 -37
197 -56 53 -20 131 -49 172 -64 41 -15 126 -52 187 -83 78 -40 124 -57 151
-57 34 0 39 -3 50 -33 7 -18 29 -53 49 -77 24 -27 31 -41 20 -37 -83 32 -265
69 -273 56 -7 -11 -6 -12 146 -43 151 -32 253 -79 300 -138 18 -22 46 -48 63
-58 l30 -19 -26 -6 c-55 -14 -125 3 -287 71 -126 52 -174 78 -202 106 -41 41
-48 45 -48 25 0 -16 55 -70 89 -87 12 -6 96 -39 184 -72 144 -53 168 -60 227
-57 36 1 76 1 90 0 30 -3 -171 -49 -218 -50 -43 -1 -322 141 -374 190 -22 20
-53 69 -75 115 -42 89 -58 79 -18 -12 52 -117 76 -136 293 -240 l137 -66 -85
7 c-128 9 -188 26 -281 83 -147 89 -157 98 -279 276 -68 99 -195 206 -243 206
l-32 0 40 -19 c58 -28 171 -143 242 -249 35 -51 61 -92 59 -92 -3 0 -38 26
-78 58 -84 67 -324 328 -386 418 l-41 62 60 -19 c33 -10 105 -28 160 -39z
m4843 -5 c-36 -58 -143 -189 -258 -319 -87 -98 -324 -300 -391 -333 -17 -8 29
42 102 112 74 70 155 159 183 200 28 40 73 91 100 114 50 42 61 61 37 61 -20
0 -133 -106 -169 -159 -38 -55 -311 -326 -350 -347 -41 -22 -146 -44 -210 -44
l-58 0 143 73 c172 87 206 112 240 174 38 70 68 153 56 153 -5 0 -17 -17 -25
-37 -34 -84 -58 -127 -88 -157 -37 -36 -299 -183 -343 -192 -17 -3 -66 2 -109
12 l-79 18 65 12 c61 12 276 92 365 136 52 26 95 67 95 90 0 10 -4 18 -10 18
-5 0 -10 -3 -10 -7 0 -5 -21 -8 -48 -9 -62 -1 -122 -29 -207 -98 -103 -82
-177 -119 -223 -111 l-37 6 57 59 c32 32 77 72 100 88 49 34 168 74 276 93 66
11 92 23 79 35 -6 6 -170 -30 -226 -50 -24 -9 -46 -16 -48 -16 -3 0 11 19 31
41 19 23 40 56 46 74 9 28 17 34 53 39 23 4 98 36 167 71 204 105 395 177 575
216 55 12 111 28 125 35 14 7 26 11 28 9 2 -1 -13 -29 -34 -60z m-3300 30
c314 -4 348 -8 500 -64 143 -51 182 -104 174 -236 -6 -98 -25 -126 -103 -158
l-63 -24 40 83 c22 46 38 89 36 96 -3 7 -28 -35 -57 -94 -51 -105 -52 -106
-121 -148 -78 -46 -169 -90 -186 -90 -9 0 -9 12 -2 43 24 103 6 291 -29 304
-27 10 -33 -11 -18 -67 31 -124 30 -263 -2 -295 -8 -8 -17 -15 -21 -15 -4 0
-8 57 -8 128 -2 167 -45 367 -82 380 -18 6 -15 -24 13 -119 29 -101 49 -258
43 -336 -4 -43 -10 -61 -28 -75 -12 -10 -25 -18 -29 -18 -3 0 -7 30 -8 68 -3
97 -46 295 -83 385 -18 42 -37 77 -42 77 -4 0 -1 -17 8 -37 42 -101 54 -137
78 -255 14 -70 26 -152 26 -183 l0 -55 -32 0 c-24 0 -41 10 -73 43 -78 82
-135 207 -179 397 l-15 65 5 -59 c13 -138 81 -301 161 -387 41 -45 45 -51 23
-45 -14 3 -48 12 -77 18 -36 7 -57 18 -68 34 -8 13 -35 46 -60 74 -60 68 -84
106 -135 223 -24 53 -48 97 -52 97 -25 0 -15 -42 31 -136 40 -84 66 -121 126
-184 41 -43 75 -81 75 -84 0 -8 -131 43 -170 67 -19 11 -60 43 -90 71 -31 28
-87 74 -125 101 -91 65 -121 122 -130 245 -10 124 -9 126 175 144 80 8 156 19
170 25 14 6 45 8 69 5 24 -3 175 -7 335 -9z m2019 0 c26 -8 105 -19 175 -25
165 -14 167 -16 159 -149 -7 -125 -38 -188 -122 -251 -33 -25 -82 -68 -110
-96 -47 -48 -138 -114 -158 -114 -12 0 28 54 96 129 61 68 121 171 115 199 -2
10 -19 -11 -41 -54 -21 -39 -59 -95 -85 -125 -36 -41 -117 -146 -127 -166 -1
-1 -19 -10 -41 -19 l-39 -16 25 28 c14 16 47 53 73 82 30 32 67 91 97 155 59
124 69 157 46 157 -9 0 -21 -12 -27 -27 -48 -128 -96 -217 -164 -303 -72 -92
-76 -95 -137 -112 -35 -9 -67 -17 -72 -18 -5 0 10 21 33 46 53 57 115 185 140
289 23 96 32 165 21 165 -4 0 -11 -25 -15 -56 -11 -90 -43 -189 -90 -284 -42
-83 -109 -170 -132 -170 -11 0 51 290 82 389 6 18 5 23 -6 19 -22 -7 -48 -89
-69 -221 -21 -133 -36 -187 -52 -187 -30 0 30 346 81 470 35 85 34 80 23 80
-33 0 -122 -360 -122 -492 0 -63 -8 -70 -41 -37 -21 21 -22 28 -16 163 4 112
12 164 36 256 19 73 27 118 21 124 -17 17 -27 -5 -56 -119 -23 -94 -27 -132
-28 -257 -1 -82 -3 -148 -6 -148 -48 1 -64 134 -35 287 19 101 19 115 -2 111
-10 -2 -23 -21 -31 -48 -17 -53 -19 -215 -4 -278 10 -41 9 -42 -11 -36 -36 11
-98 44 -170 91 -67 43 -70 46 -119 151 -28 59 -53 102 -55 95 -2 -7 13 -50 35
-96 l39 -84 -62 25 c-74 29 -93 59 -102 161 -11 135 31 194 178 250 147 57
170 60 497 64 166 2 305 7 309 10 9 9 11 9 66 -8z m-2833 -232 c0 -9 -8 -9
-30 -2 -38 14 -38 19 0 16 16 -1 30 -7 30 -14z m3270 -8 c-30 -17 -40 -18 -40
-6 0 8 22 16 55 19 6 1 -1 -5 -15 -13z m-1620 -251 c0 -11 71 -23 140 -24 43
-1 104 -27 235 -102 55 -31 135 -71 178 -88 95 -37 143 -62 181 -94 l29 -24
-24 -7 c-13 -4 -55 -29 -94 -55 -98 -66 -142 -86 -202 -93 -56 -6 -61 -3 -39
28 26 37 46 95 33 95 -7 0 -23 -25 -36 -55 -13 -30 -29 -59 -35 -64 -6 -6 -54
-13 -106 -17 l-95 -6 39 40 c21 22 36 46 34 53 -2 7 -19 -7 -38 -32 -18 -24
-40 -50 -49 -56 -17 -15 -181 -18 -181 -4 0 5 -38 7 -85 5 -97 -5 -250 18
-275 41 -9 8 -29 42 -45 75 -26 55 -45 76 -45 50 0 -18 41 -93 64 -118 l21
-24 -30 7 c-98 21 -169 50 -245 100 -47 30 -95 58 -107 61 -13 4 -23 9 -23 13
0 15 103 71 195 106 55 20 154 65 220 100 154 80 241 109 306 102 45 -6 49 -4
49 15 0 21 0 21 15 2 8 -10 15 -24 15 -30z m1710 -9 c-19 -19 -238 -125 -258
-125 -9 0 114 92 143 108 34 17 102 40 125 41 10 1 7 -7 -10 -24z m-460 -185
c-14 -4 -36 -8 -50 -8 -23 -1 -23 0 -5 8 11 5 34 8 50 8 29 0 29 0 5 -8z
m-2248 -55 c144 -38 146 -38 132 -60 -12 -19 -12 -26 4 -57 l19 -36 -36 4
c-20 2 -67 6 -106 8 -182 14 -356 37 -415 55 -36 12 -75 21 -87 21 -12 0 -25
5 -28 10 -3 6 2 10 12 10 11 0 56 11 100 24 45 13 85 20 90 16 9 -9 145 -33
291 -51 82 -11 104 -11 115 0 10 10 7 11 -13 6 -23 -6 -335 38 -370 51 -22 9
79 44 115 40 17 -2 96 -21 177 -41z m2185 -2 c29 -9 53 -20 53 -23 0 -6 -286
-57 -360 -64 -24 -2 -19 -3 17 -4 60 -2 357 46 361 58 2 5 29 0 60 -10 31 -11
77 -24 102 -31 l45 -12 -45 -19 c-70 -31 -187 -56 -280 -61 l-85 -4 53 16 c30
9 53 19 53 24 1 30 -9 31 -82 14 -41 -10 -110 -21 -154 -26 l-80 -8 64 -2 c35
0 62 -3 60 -5 -2 -2 -41 -7 -87 -10 l-83 -8 17 27 c14 21 15 30 5 52 -6 14
-10 27 -9 28 2 1 53 15 113 31 61 15 124 33 140 40 40 18 59 17 122 -3z m-348
-197 c-11 -9 -69 -15 -64 -6 3 6 20 10 37 10 17 0 29 -2 27 -4z"/>
<path d="M5093 9249 c4 -276 13 -359 39 -359 6 0 8 10 3 28 -4 15 -10 157 -14
316 -5 230 -9 290 -20 294 -11 4 -12 -44 -8 -279z"/>
<path d="M4206 9485 c-3 -9 -6 -130 -6 -269 0 -160 -4 -265 -11 -285 -12 -33
-6 -52 11 -35 21 21 29 123 30 356 1 223 -5 282 -24 233z"/>
<path d="M4665 8801 c-3 -5 -12 -56 -21 -113 -15 -100 -12 -208 6 -208 4 0 4
19 -2 42 -8 39 11 228 28 273 7 16 -1 21 -11 6z"/>
<path d="M4217 8360 c-3 -43 -12 -93 -21 -111 -13 -26 -13 -29 -1 -19 18 15
32 64 41 148 4 39 3 62 -3 62 -6 0 -13 -36 -16 -80z"/>
<path d="M5091 8365 c-1 -67 11 -121 34 -150 13 -18 13 -16 0 17 -8 21 -15 61
-16 90 -2 81 -17 118 -18 43z"/>
<path d="M4457 7850 c33 -33 67 -60 75 -60 7 0 0 9 -17 20 -16 11 -43 38 -60
60 -16 21 -37 39 -45 39 -8 0 13 -26 47 -59z"/>
<path d="M6356 9027 c-43 -91 -65 -123 -106 -160 -45 -41 -49 -47 -29 -47 37
0 103 81 158 196 52 106 58 124 42 124 -5 0 -34 -51 -65 -113z"/>
<path d="M2857 9123 c-13 -12 98 -208 143 -255 43 -44 90 -64 90 -38 0 6 -6
10 -14 10 -26 0 -105 99 -150 188 -45 90 -58 107 -69 95z"/>
<path d="M6160 9013 c-29 -49 -60 -98 -68 -110 -8 -13 -12 -23 -9 -23 3 0 30
39 60 88 60 97 80 132 74 132 -2 0 -28 -39 -57 -87z"/>
<path d="M3080 9077 c0 -11 124 -197 128 -192 2 2 -26 47 -62 102 -36 54 -66
94 -66 90z"/>
</g>
</svg>
