<svg width="306" height="306" viewBox="0 0 306 306" fill="none" xmlns="http://www.w3.org/2000/svg">
<path d="M304.595 208.173C299.641 200.72 282.788 181.848 263.502 168.354V137.646C282.787 124.152 299.641 105.28 304.592 97.8269C306.153 95.4823 306.434 92.5173 305.349 89.8953C304.262 87.2728 301.966 85.3764 299.207 84.8206C290.425 83.0533 265.169 81.6261 241.994 85.7195L220.28 64.0053C224.373 40.8275 222.946 15.5668 221.179 6.79499C220.622 4.0338 218.726 1.73819 216.104 0.651048C213.479 -0.435497 210.513 -0.147425 208.172 1.40589C200.719 6.35989 181.847 23.2127 168.353 42.498H137.646C124.153 23.2127 105.28 6.35929 97.8277 1.40828C95.486 -0.149815 92.5258 -0.431313 89.8961 0.651048C87.2736 1.73759 85.3772 4.0338 84.8214 6.792C83.0541 15.5662 81.6269 40.8275 85.7203 64.0053L64.0061 85.7195C40.8241 81.6261 15.5622 83.0503 6.79577 84.8206C4.03399 85.377 1.73898 87.2734 0.651834 89.8953C-0.432917 92.5179 -0.152017 95.4835 1.40668 97.8269C6.36068 105.28 23.2135 124.152 42.4988 137.646V168.354C23.2129 181.848 6.35948 200.72 1.40907 208.173C-0.152017 210.517 -0.432917 213.482 0.651834 216.104C1.73838 218.727 4.03459 220.623 6.79278 221.179C15.5646 222.941 40.8235 224.368 64.0061 220.28L85.7203 241.994C81.6269 265.172 83.0541 290.433 84.8214 299.205C85.3778 301.966 87.2742 304.261 89.8961 305.349C90.9528 305.787 92.0627 306 93.1653 306C94.8035 306 96.4268 305.523 97.8277 304.593C105.28 299.639 124.153 282.786 137.647 263.501H168.354C181.848 282.786 200.721 299.639 208.174 304.59C210.518 306.148 213.475 306.429 216.105 305.347C218.728 304.261 220.624 301.965 221.18 299.206C222.947 290.432 224.374 265.17 220.281 241.992L241.995 220.278C265.17 224.366 290.431 222.939 299.205 221.177C301.967 220.621 304.262 218.724 305.349 216.102C306.434 213.482 306.153 210.517 304.595 208.173Z" fill="#EBD0F7"/>
<path d="M296.006 146.266C288.414 141.165 268.635 131.987 249.012 127.602L238.852 103.066C249.62 86.0953 257.119 65.6177 258.884 56.6349C259.399 53.9915 258.565 51.2715 256.647 49.3524C254.726 47.4357 252 46.5984 249.359 47.116C240.382 48.8809 219.904 56.3797 202.933 67.1477L178.398 56.9875C174.013 37.3652 164.834 17.5856 159.733 9.99118C156.724 5.5195 149.274 5.51651 146.265 9.99357C141.165 17.5856 131.986 37.3652 127.601 56.9875L103.066 67.1477C86.0945 56.3797 65.6169 48.8809 56.6341 47.116C53.9757 46.593 51.2707 47.4375 49.3516 49.3524C47.4349 51.2715 46.6 53.9921 47.1152 56.6403C48.88 65.6177 56.3789 86.0953 67.1469 103.067L56.9867 127.602C37.3643 131.987 17.5848 141.165 9.99034 146.266C7.7539 147.771 6.41992 150.288 6.41992 153C6.41992 155.713 7.7539 158.23 9.99273 159.734C17.5848 164.835 37.3643 174.013 56.9867 178.398L67.1469 202.934C56.3789 219.905 48.88 240.382 47.1152 249.365C46.6 252.009 47.4343 254.729 49.3516 256.648C51.2707 258.564 53.9912 259.396 56.6395 258.884C65.6169 257.119 86.0945 249.62 103.066 238.852L127.601 249.013C131.986 268.635 141.165 288.414 146.266 296.009C147.77 298.245 150.287 299.579 152.999 299.579C155.712 299.579 158.229 298.245 159.733 296.006C164.834 288.414 174.013 268.635 178.398 249.013L202.933 238.853C219.904 249.621 240.381 257.12 249.364 258.885C252.023 259.408 254.728 258.563 256.647 256.648C258.563 254.729 259.398 252.009 258.883 249.36C257.118 240.383 249.619 219.905 238.851 202.934L249.012 178.398C268.634 174.014 288.414 164.835 296.008 159.734C298.244 158.23 299.578 155.713 299.578 153C299.579 150.288 298.244 147.77 296.006 146.266Z" fill="#EAB7E7"/>
<path d="M226.177 156.905L226.381 148.834C240.973 140.198 268.15 121.818 262.313 107.722C256.256 93.1076 227.437 98.1979 212.473 101.972L204.051 93.5451C207.83 78.5809 212.936 49.7612 198.278 43.6866C186.11 38.6579 167.962 56.0982 155.578 76.635L150.132 76.8023C137.7 56.2243 119.667 38.7278 107.721 43.686C93.0632 49.7606 98.1696 78.5791 101.948 93.5445L93.5371 101.955C78.5729 98.1836 49.7586 93.0778 43.6864 107.723C37.5347 122.577 68.5072 142.753 79.7163 149.459L79.8424 156.369C68.4868 163.17 37.5245 183.392 43.687 198.277C49.7538 212.914 78.5676 207.814 93.5377 204.042L101.935 212.443C98.1511 227.41 93.0405 256.232 107.721 262.309C122.46 268.424 141.724 239.232 149.318 226.454H156.68C163.571 238.05 180.105 263.138 194.089 263.136C195.516 263.136 196.917 262.875 198.278 262.312C212.957 256.229 207.845 227.408 204.061 212.443L212.472 204.027C227.436 207.799 256.258 212.891 262.312 198.277C268.266 183.906 239.047 164.57 226.177 156.905Z" fill="#E890CE"/>
<path d="M191.078 164.708L191.392 140.946C224.588 104.262 222.622 91.7653 218.428 87.5715C214.225 83.37 201.683 81.4091 164.887 114.76L140.944 114.608C104.26 81.4049 91.7581 83.3784 87.5715 87.5721C83.3592 91.7844 81.4043 104.345 114.865 141.227L115.115 164.492C81.3965 201.574 83.3383 214.198 87.5709 218.428C88.8153 219.672 90.7834 220.718 93.8846 220.718C101.327 220.718 115.287 214.703 141.399 190.979L164.78 191.141C201.659 224.597 214.218 222.645 218.427 218.427C222.648 214.211 224.603 201.635 191.078 164.708Z" fill="#E777BD"/>
<path d="M173.572 133.965L172.035 132.427C171.867 120.507 170.108 74.2479 153 74.2479C135.892 74.2479 134.132 120.507 133.965 132.427L132.427 133.965C120.507 134.132 74.248 135.892 74.248 153C74.248 170.108 120.507 171.867 132.427 172.035L133.965 173.572C134.132 185.492 135.892 231.751 153 231.751C170.108 231.751 171.867 185.492 172.035 173.572L173.572 172.035C185.492 171.867 231.752 170.108 231.752 153C231.752 135.892 185.492 134.132 173.572 133.965Z" fill="#E559A9"/>
<path d="M176.432 154.772L176.481 151.171C182.929 143.847 194.035 129.65 185.191 120.809C176.362 111.975 162.186 123.042 154.826 129.524L151.145 129.498C143.814 123.05 129.64 111.965 120.801 120.811C111.947 129.68 123.127 143.932 129.616 151.284L129.653 154.674C123.11 162.081 111.94 176.342 120.819 185.209C122.916 187.293 125.809 188.442 128.97 188.442C134.777 188.442 141.724 184.699 151.274 176.375L154.734 176.399C160.152 181.178 169.292 188.488 177.267 188.486C180.135 188.486 182.85 187.543 185.189 185.199C194.04 176.36 182.947 162.158 176.432 154.772Z" fill="#CE4696"/>
<path d="M153 174.104C164.655 174.104 174.103 164.655 174.103 153C174.103 141.345 164.655 131.897 153 131.897C141.345 131.897 131.896 141.345 131.896 153C131.896 164.655 141.345 174.104 153 174.104Z" fill="#BE3C8C"/>
<path d="M153 137.173C155.914 137.173 158.276 134.81 158.276 131.896C158.276 128.982 155.914 126.62 153 126.62C150.086 126.62 147.724 128.982 147.724 131.896C147.724 134.81 150.086 137.173 153 137.173Z" fill="#FFC337"/>
<path d="M153 179.38C155.914 179.38 158.276 177.018 158.276 174.104C158.276 171.19 155.914 168.828 153 168.828C150.086 168.828 147.724 171.19 147.724 174.104C147.724 177.018 150.086 179.38 153 179.38Z" fill="#FFC337"/>
<path d="M174.104 158.276C177.018 158.276 179.38 155.914 179.38 153C179.38 150.086 177.018 147.724 174.104 147.724C171.19 147.724 168.828 150.086 168.828 153C168.828 155.914 171.19 158.276 174.104 158.276Z" fill="#FFC337"/>
<path d="M131.897 158.276C134.811 158.276 137.173 155.914 137.173 153C137.173 150.086 134.811 147.724 131.897 147.724C128.983 147.724 126.621 150.086 126.621 153C126.621 155.914 128.983 158.276 131.897 158.276Z" fill="#FFC337"/>
<path d="M153 160.914C157.371 160.914 160.914 157.371 160.914 153C160.914 148.63 157.371 145.087 153 145.087C148.629 145.087 145.086 148.63 145.086 153C145.086 157.371 148.629 160.914 153 160.914Z" fill="#FFAF32"/>
<path d="M167.924 143.352C170.838 143.352 173.2 140.99 173.2 138.076C173.2 135.162 170.838 132.8 167.924 132.8C165.01 132.8 162.648 135.162 162.648 138.076C162.648 140.99 165.01 143.352 167.924 143.352Z" fill="#FFC337"/>
<path d="M138.076 173.201C140.99 173.201 143.352 170.838 143.352 167.924C143.352 165.011 140.99 162.648 138.076 162.648C135.162 162.648 132.8 165.011 132.8 167.924C132.8 170.838 135.162 173.201 138.076 173.201Z" fill="#FFC337"/>
<path d="M167.924 173.201C170.838 173.201 173.2 170.838 173.2 167.924C173.2 165.011 170.838 162.648 167.924 162.648C165.01 162.648 162.648 165.011 162.648 167.924C162.648 170.838 165.01 173.201 167.924 173.201Z" fill="#FFC337"/>
<path d="M138.076 143.352C140.99 143.352 143.352 140.99 143.352 138.076C143.352 135.162 140.99 132.8 138.076 132.8C135.162 132.8 132.8 135.162 132.8 138.076C132.8 140.99 135.162 143.352 138.076 143.352Z" fill="#FFC337"/>
</svg>
