<?xml version="1.0" encoding="utf-8"?>
<!-- Generator: Adobe Illustrator 22.0.1, SVG Export Plug-In . SVG Version: 6.00 Build 0)  -->
<svg version="1.1" id="Layer_1" xmlns="http://www.w3.org/2000/svg" xmlns:xlink="http://www.w3.org/1999/xlink" x="0px" y="0px"
	 width="1200px" height="1200px" viewBox="0 0 1200 1200" style="enable-background:new 0 0 1200 1200;" xml:space="preserve">
<style type="text/css">
	.st0{fill:#008587;}
</style>
<g>
	<path class="st0" d="M583.1,246.2l-25.4,4.9l17.5,64.9c10.4-28.7,29.9-24.2,29.9-24.2c-4-13.5,5.5-24.2,5.5-24.2l31.3-36.2
		l31.3,36.2c0,0,9.5,10.7,5.5,24.2c0,0,19.5-4.6,29.9,24.2l17.5-64.9l-25.4-4.9c0,0,53.9-5.6,44.3-64.1
		c-3.3-20.3-13.1-39.1-27.4-53.9c-6.9-7.2-16-15.2-27.7-23c-7.3-4.9-14.6-10-21-16c-10.6-9.7-23.8-24.5-27-39.7
		c-3.3,15.2-16.5,30-27,39.7c-6.5,6-13.7,11.1-21,16c-11.7,7.8-20.8,15.8-27.7,23c-14.2,14.8-24.1,33.6-27.4,53.9
		C529.1,240.6,583.1,246.2,583.1,246.2z M594.9,121.8c32.7-23.6,44.3-41.6,47-46.4c2.7,4.8,14.3,22.8,47,46.4
		c0,0,52.2,35.1,38.1,79.1c0,0-5.5,24.5-31.5,27.2c0,0-19.9,4-21.1-19.9c0,0-0.3-22.3,31.5-6.7c0,0-11.3-54.1-59.9-23.2
		c0,0-5.8-28.1,40.7-27.5c0,0-8.9-13.7-30-13.6c0,0,0.8-24.7-14.8-39.5c-15.5,14.8-14.8,39.5-14.8,39.5c-21.1-0.1-30,13.6-30,13.6
		c46.5-0.6,40.7,27.5,40.7,27.5c-48.6-30.9-59.9,23.2-59.9,23.2c31.8-15.6,31.5,6.7,31.5,6.7c-1.2,23.9-21.1,19.9-21.1,19.9
		c-26-2.8-31.5-27.2-31.5-27.2C542.7,156.9,594.9,121.8,594.9,121.8z"/>
	<path class="st0" d="M582.4,320.5c25.7,6.1,26.5,29.4,26.5,29.4c-5.5,12.4,7.2,17.3,7.2,17.3c12.1,5.2,16.7-4,16.7-4
		c3.7-7-3.1-10.1-3.1-10.1c-2-9.6,7.5-10.1,12.2-9.7c4.7-0.4,14.2,0,12.2,9.7c0,0-6.7,3.1-3.1,10.1c0,0,4.6,9.2,16.7,4
		c0,0,12.7-4.9,7.2-17.3c0,0,0.8-23.2,26.5-29.4c0,0-13.5-15.6-32.7-10.4c0,0,2.8-15.9-12.5-30.6c0,0-8.3-7.2-14.2-13.9
		c-5.9,6.7-14.2,13.9-14.2,13.9c-15.3,14.7-12.5,30.6-12.5,30.6C595.9,304.9,582.4,320.5,582.4,320.5z"/>
	<path class="st0" d="M428.9,334.5l-17.7,18.9l52.3,42.2c-8.5-29.4,10-37.1,10-37.1c-11.1-8.5-9.7-22.8-9.7-22.8l4-47.7l46.6,10.9
		c0,0,14,3.1,18.7,16.3c0,0,13.1-15.2,38.4,2l-23.9-62.8l-23.4,11c0,0,40.3-36.3-1.8-77.9c-14.6-14.4-33.6-23.9-53.8-27.5
		c-9.8-1.7-21.9-2.9-35.9-2.3c-8.8,0.4-17.6,0.5-26.4-0.5c-14.3-1.7-33.7-5.9-45.2-16.2c6.3,14.2,4.3,33.9,1.5,48
		c-1.7,8.6-4.6,17-7.7,25.3c-4.9,13.1-7.5,25-8.9,34.9c-2.8,20.3,0.3,41.3,9.5,59.7C382,361.7,428.9,334.5,428.9,334.5z
		 M365.4,226.9c12.5-38.3,11.4-59.7,10.8-65.2c5,2.3,25,10,65.3,9.9c0,0,62.8-2.3,77.3,41.6c0,0,9.9,23-9.5,40.5
		c0,0-13.7,14.9-28.8-3.7c0,0-13.4-17.9,21.5-24c0,0-41-37.1-62.2,16.4c0,0-21.2-19.3,16.7-46.2c0,0-15.2-5.9-32.2,6.6
		c0,0-13.9-20.5-35.2-23.3c-3.9,21.1,11.3,40.7,11.3,40.7c-17.1,12.3-16.3,28.6-16.3,28.6c37.2-27.8,49.1-1.6,49.1-1.6
		c-57.5,3.6-34.8,54-34.8,54c16.6-31.3,29.4-13.1,29.4-13.1c13,20-5.4,28.5-5.4,28.5c-22.6,13.1-41.5-3.5-41.5-3.5
		C343.8,286,365.4,226.9,365.4,226.9z"/>
	<path class="st0" d="M472.1,395c24.4-10.2,38.7,8.2,38.7,8.2c2.8,13.3,16,9.8,16,9.8c12.8-2.9,11.1-13,11.1-13
		c-1.2-7.8-8.4-6.4-8.4-6.4c-7.3-6.6,0.1-12.5,4.2-15c3.6-3.1,11.5-8.3,15.6,0.7c0,0-3.6,6.5,3.5,10c0,0,9.1,4.7,15.8-6.6
		c0,0,7.4-11.4-4.3-18.2c0,0-13-19.3,4.1-39.3c0,0-20.1-4.7-32.6,10.8c0,0-7.1-14.5-28.1-17.4c0,0-10.9-0.9-19.6-2.9
		c-0.8,8.9-3.3,19.6-3.3,19.6c-3.7,20.9,7.8,32.1,7.8,32.1C473.8,374.5,472.1,395,472.1,395z"/>
	<path class="st0" d="M216.7,417.9c3.7,8,6.3,16.5,8.7,24.9c3.8,13.5,8.6,24.6,13.3,33.4c9.7,18.1,24.5,33.3,42.8,42.7
		c52.7,27.2,74.7-22.4,74.7-22.4l-3.2,25.6l67.1,3.4c-24.1-18.8-13.7-35.9-13.7-35.9c-14-0.4-21.3-12.7-21.3-12.7l-24.8-41
		l44.1-18.6c0,0,13.1-5.7,24.7,2.2c0,0,1.7-19.9,32.2-21L404.9,362l-12.5,22.6c0,0,11.3-53-47.3-62c-20.3-3.1-41.2,0.4-59.7,9.4
		c-9,4.4-19.4,10.5-30.4,19.2c-6.9,5.5-14,10.8-21.7,15.1c-12.5,7.1-30.7,15-46.1,13.4C200.7,387.7,210.7,404.8,216.7,417.9z
		 M270.5,357.5c0,0,49.5-38.8,87-11.8c0,0,21.6,12.8,16.2,38.4c0,0-2.4,20.1-25.4,13.9c0,0-21.3-6.6,3.3-32c0,0-55-6-40.6,49.8
		c0,0-28.6-3.2-13.6-47.2c0,0-15.8,4.2-22.2,24.3c0,0-23.3-8.4-42.2,1.8c9.3,19.3,33,26.3,33,26.3c-6.6,20,3.7,32.7,3.7,32.7
		c13.8-44.4,38.7-30.2,38.7-30.2c-44.4,36.7,3.6,64.2,3.6,64.2c-5-35.1,16.1-27.9,16.1-27.9c22.3,8.5,12.4,26.2,12.4,26.2
		c-10.7,23.9-35.6,21.5-35.6,21.5c-46.2-0.2-63.5-60.7-63.5-60.7c-12.4-38.4-25.9-54.9-29.6-59C217.3,386.7,238,381.3,270.5,357.5z"
		/>
	<path class="st0" d="M443.3,435c0,0-14.3-7.5-33,2.5c0,0-9.4,5.7-17.6,9.2c4.6,7.7,8.8,17.8,8.8,17.8c9.2,19.1,25.2,21.4,25.2,21.4
		c-10.9,16.7-0.2,34.3-0.2,34.3c13.8-22.5,36.1-16.1,36.1-16.1c10.1,9.1,18.7-1.5,18.7-1.5c8.7-9.9,1.4-17.1,1.4-17.1
		c-5.6-5.7-10.6-0.2-10.6-0.2c-9.8-1.1-7.3-10.2-5.5-14.6c1.1-4.6,4.4-13.4,13-8.6c0,0,0.9,7.4,8.7,6c0,0,10.1-1.5,8.9-14.6
		c0,0-0.7-13.6-14.2-12.2c0,0-21.9-7.9-19.7-34.2C463.3,407.1,444.3,415,443.3,435z"/>
	<path class="st0" d="M392.5,670.4l12.5,22.6l56.3-36.7c-30.6-1-32.2-21-32.2-21c-11.6,7.9-24.7,2.2-24.7,2.2l-44.1-18.6l24.8-41
		c0,0,7.3-12.3,21.3-12.7c0,0-10.4-17.1,13.7-35.9l-67.1,3.4l3.2,25.6c0,0-22-49.6-74.7-22.4c-18.2,9.4-33.1,24.6-42.8,42.7
		c-4.7,8.8-9.5,19.9-13.3,33.4c-2.4,8.5-5,16.9-8.7,24.9c-6,13.1-16,30.2-29.4,38c15.4-1.6,33.6,6.4,46.1,13.4
		c7.7,4.3,14.8,9.6,21.7,15.1c11,8.7,21.4,14.9,30.4,19.2c18.5,9,39.4,12.5,59.7,9.4C403.8,723.5,392.5,670.4,392.5,670.4z
		 M270.5,697.6c-32.6-23.8-53.2-29.3-58.6-30.4c3.7-4.1,17.2-20.7,29.6-59c0,0,17.2-60.5,63.5-60.7c0,0,25-2.3,35.6,21.5
		c0,0,9.9,17.7-12.4,26.2c0,0-21.1,7.2-16.1-27.9c0,0-48,27.5-3.6,64.2c0,0-25,14.2-38.7-30.2c0,0-10.3,12.7-3.7,32.7
		c0,0-23.8,6.9-33,26.3c18.9,10.2,42.2,1.8,42.2,1.8c6.4,20.1,22.2,24.3,22.2,24.3c-14.9-44,13.6-47.2,13.6-47.2
		c-14.3,55.8,40.6,49.8,40.6,49.8c-24.7-25.4-3.3-32-3.3-32c23.1-6.2,25.4,13.9,25.4,13.9c5.4,25.6-16.2,38.4-16.2,38.4
		C320,736.4,270.5,697.6,270.5,697.6z"/>
	<path class="st0" d="M483.1,613.8c13.5,1.4,14.2-12.2,14.2-12.2c1.2-13.1-8.9-14.6-8.9-14.6c-7.8-1.3-8.7,6-8.7,6
		c-8.6,4.9-11.9-4-13-8.6c-1.8-4.4-4.3-13.5,5.5-14.6c0,0,5,5.4,10.6-0.2c0,0,7.3-7.2-1.4-17.1c0,0-8.6-10.6-18.7-1.5
		c0,0-22.3,6.5-36.1-16.1c0,0-10.7,17.6,0.2,34.3c0,0-16,2.3-25.2,21.4c0,0-4.2,10.1-8.8,17.8c8.2,3.5,17.6,9.2,17.6,9.2
		c18.7,10,33,2.5,33,2.5c1,19.9,20,27.9,20,27.9C461.2,621.7,483.1,613.8,483.1,613.8z"/>
	<path class="st0" d="M524.1,789.8l23.4,11l23.9-62.8c-25.3,17.1-38.4,2-38.4,2c-4.7,13.2-18.7,16.3-18.7,16.3l-46.6,10.9l-4-47.7
		c0,0-1.4-14.2,9.7-22.8c0,0-18.5-7.7-10-37.1l-52.3,42.2l17.7,18.9c0,0-46.9-27.1-73.6,25.8c-9.2,18.3-12.3,39.3-9.5,59.7
		c1.4,9.9,4,21.7,8.9,34.9c3.1,8.3,5.9,16.6,7.7,25.3c2.8,14.1,4.8,33.8-1.5,48c11.6-10.4,31-14.6,45.2-16.2
		c8.8-1,17.6-0.9,26.4-0.5c14,0.6,26.1-0.6,35.9-2.3c20.2-3.6,39.2-13,53.8-27.5C564.4,826,524.1,789.8,524.1,789.8z M518.8,841.8
		c-14.5,43.9-77.3,41.6-77.3,41.6c-40.3-0.1-60.2,7.6-65.3,9.9c0.6-5.5,1.8-26.8-10.8-65.2c0,0-21.6-59,15.7-86.4
		c0,0,18.8-16.6,41.5-3.5c0,0,18.4,8.5,5.4,28.5c0,0-12.9,18.2-29.4-13.1c0,0-22.7,50.4,34.8,54c0,0-11.8,26.2-49.1-1.6
		c0,0-0.9,16.3,16.3,28.6c0,0-15.2,19.6-11.3,40.7c21.3-2.8,35.2-23.3,35.2-23.3c17,12.5,32.2,6.6,32.2,6.6
		c-38-26.8-16.7-46.2-16.7-46.2c21.2,53.6,62.2,16.4,62.2,16.4c-34.9-6.1-21.5-24-21.5-24c15-18.6,28.8-3.7,28.8-3.7
		C528.7,818.8,518.8,841.8,518.8,841.8z"/>
	<path class="st0" d="M568.5,672.5c-6.7-11.3-15.8-6.6-15.8-6.6c-7.1,3.5-3.5,10-3.5,10c-4.1,9-12,3.7-15.6,0.7
		c-4-2.5-11.4-8.4-4.2-15c0,0,7.3,1.4,8.4-6.4c0,0,1.7-10.1-11.1-13c0,0-13.1-3.5-16,9.8c0,0-14.3,18.4-38.7,8.2
		c0,0,1.7,20.5,20.4,27.6c0,0-11.6,11.2-7.8,32.1c0,0,2.5,10.7,3.3,19.6c8.7-2,19.6-2.9,19.6-2.9c21-2.9,28.1-17.4,28.1-17.4
		c12.5,15.5,32.6,10.8,32.6,10.8c-17.2-20-4.1-39.3-4.1-39.3C575.8,683.9,568.5,672.5,568.5,672.5z"/>
	<path class="st0" d="M700.7,808.9l25.4-4.9l-17.5-64.9c-10.4,28.7-29.9,24.2-29.9,24.2c4,13.5-5.5,24.2-5.5,24.2l-31.3,36.2
		l-31.3-36.2c0,0-9.5-10.7-5.5-24.2c0,0-19.5,4.6-29.9-24.2l-17.5,64.9l25.4,4.9c0,0-53.9,5.6-44.3,64.1
		c3.3,20.3,13.1,39.1,27.4,53.9c6.9,7.2,16,15.2,27.7,23c7.3,4.9,14.6,10,21,16c10.6,9.7,23.8,24.5,27,39.7
		c3.3-15.2,16.5-30,27-39.7c6.5-6,13.7-11.1,21-16c11.7-7.8,20.8-15.8,27.7-23c14.2-14.8,24.1-33.6,27.4-53.9
		C754.6,814.5,700.7,808.9,700.7,808.9z M688.9,933.3c-32.7,23.6-44.3,41.6-47,46.4c-2.7-4.8-14.3-22.8-47-46.4
		c0,0-52.2-35.1-38.1-79.1c0,0,5.5-24.5,31.5-27.2c0,0,19.9-4,21.1,19.9c0,0,0.3,22.3-31.5,6.7c0,0,11.3,54.1,59.9,23.2
		c0,0,5.8,28.1-40.7,27.5c0,0,8.9,13.7,30,13.6c0,0-0.8,24.7,14.8,39.5c15.5-14.8,14.8-39.5,14.8-39.5c21.1,0.1,30-13.6,30-13.6
		c-46.5,0.6-40.7-27.5-40.7-27.5c48.6,30.9,59.9-23.2,59.9-23.2c-31.8,15.6-31.5-6.7-31.5-6.7c1.2-23.9,21.1-19.9,21.1-19.9
		c26,2.8,31.5,27.2,31.5,27.2C741.1,898.2,688.9,933.3,688.9,933.3z"/>
	<path class="st0" d="M701.3,734.6c-25.7-6.1-26.5-29.4-26.5-29.4c5.5-12.4-7.2-17.3-7.2-17.3c-12.1-5.2-16.7,4-16.7,4
		c-3.7,7,3.1,10.1,3.1,10.1c2,9.6-7.5,10.1-12.2,9.7c-4.7,0.4-14.2,0-12.2-9.7c0,0,6.7-3.1,3.1-10.1c0,0-4.6-9.2-16.7-4
		c0,0-12.7,4.9-7.2,17.3c0,0-0.8,23.2-26.5,29.4c0,0,13.5,15.6,32.7,10.4c0,0-2.8,15.9,12.5,30.6c0,0,8.3,7.2,14.2,13.9
		c5.9-6.7,14.2-13.9,14.2-13.9c15.3-14.7,12.5-30.6,12.5-30.6C687.8,750.2,701.3,734.6,701.3,734.6z"/>
	<path class="st0" d="M854.8,720.6l17.7-18.9l-52.3-42.2c8.5,29.4-10,37.1-10,37.1c11.1,8.5,9.7,22.8,9.7,22.8l-4,47.7l-46.6-10.9
		c0,0-14-3.1-18.7-16.3c0,0-13.1,15.2-38.4-2l23.9,62.8l23.4-11c0,0-40.3,36.3,1.8,77.9c14.6,14.4,33.6,23.9,53.8,27.5
		c9.8,1.7,21.9,2.9,35.9,2.3c8.8-0.4,17.6-0.5,26.4,0.5c14.3,1.7,33.7,5.9,45.2,16.2c-6.3-14.2-4.3-33.9-1.5-48
		c1.7-8.6,4.6-17,7.7-25.3c4.9-13.1,7.5-25,8.9-34.9c2.8-20.3-0.3-41.3-9.5-59.7C901.8,693.5,854.8,720.6,854.8,720.6z M918.4,828.2
		c-12.5,38.3-11.4,59.7-10.8,65.2c-5-2.3-25-10-65.3-9.9c0,0-62.8,2.3-77.3-41.6c0,0-9.9-23,9.5-40.5c0,0,13.7-14.9,28.8,3.7
		c0,0,13.4,17.9-21.5,24c0,0,41,37.1,62.2-16.4c0,0,21.2,19.3-16.7,46.2c0,0,15.2,5.9,32.2-6.6c0,0,13.9,20.5,35.2,23.3
		c3.9-21.1-11.3-40.7-11.3-40.7c17.1-12.3,16.3-28.6,16.3-28.6c-37.2,27.8-49.1,1.6-49.1,1.6c57.5-3.6,34.8-54,34.8-54
		c-16.6,31.3-29.4,13.1-29.4,13.1c-13-20,5.4-28.5,5.4-28.5c22.6-13.1,41.5,3.5,41.5,3.5C940,769.1,918.4,828.2,918.4,828.2z"/>
	<path class="st0" d="M733.8,654.1c1.8-6.6,8-21.2,29.6-28.9c0,0-4.2-5.5-4.2-12.4c6.6-2.1,13.1,0.1,13.1,0.1
		c0.6-22.9,12.6-33.3,18.3-37c-2.5-6.4-6-21.9,7-40.7c0,0-6.6-2-10.7-7.6c4.1-5.6,10.7-7.6,10.7-7.6c-13-18.9-9.4-34.3-7-40.7
		c-5.8-3.7-17.7-14.1-18.3-37c0,0-6.5,2.3-13.1,0.1c0-7,4.2-12.4,4.2-12.4c-21.6-7.7-27.8-22.2-29.6-28.9c-6.8,0.4-22.6-1-36.6-19.2
		c0,0-3.9,5.6-10.5,7.8c-4.1-5.6-3.9-12.5-3.9-12.5c-22,6.5-35.6-1.6-40.9-6c-5.3,4.3-18.9,12.5-40.9,6c0,0,0.1,6.9-3.9,12.5
		c-6.6-2.2-10.5-7.8-10.5-7.8c-13.9,18.2-29.7,19.6-36.6,19.2c-1.8,6.6-8,21.2-29.6,28.9c0,0,4.2,5.5,4.2,12.4
		c-6.6,2.1-13.1-0.1-13.1-0.1c-0.6,22.9-12.6,33.3-18.3,37c2.5,6.4,6,21.9-7,40.7c0,0,6.6,2,10.7,7.6c-4.1,5.6-10.7,7.6-10.7,7.6
		c13,18.9,9.4,34.3,7,40.7c5.8,3.7,17.7,14.1,18.3,37c0,0,6.5-2.3,13.1-0.1c0,7-4.2,12.4-4.2,12.4c21.6,7.7,27.8,22.2,29.6,28.9
		c6.8-0.4,22.6,1,36.6,19.2c0,0,3.9-5.6,10.5-7.8c4.1,5.6,3.9,12.5,3.9,12.5c22-6.5,35.6,1.6,40.9,6c5.3-4.3,18.9-12.5,40.9-6
		c0,0-0.1-6.9,3.9-12.5c6.6,2.2,10.5,7.8,10.5,7.8C711.2,655.2,727,653.7,733.8,654.1z"/>
	<path class="st0" d="M811.7,660.1c-24.4,10.2-38.7-8.2-38.7-8.2c-2.8-13.3-16-9.8-16-9.8c-12.8,2.9-11.1,13-11.1,13
		c1.2,7.8,8.4,6.4,8.4,6.4c7.3,6.6-0.1,12.5-4.2,15c-3.6,3.1-11.5,8.3-15.6-0.7c0,0,3.6-6.5-3.5-10c0,0-9.1-4.7-15.8,6.6
		c0,0-7.4,11.4,4.3,18.2c0,0,13,19.3-4.1,39.3c0,0,20.1,4.7,32.6-10.8c0,0,7.1,14.5,28.1,17.4c0,0,10.9,0.9,19.6,2.9
		c0.8-8.9,3.3-19.6,3.3-19.6c3.7-20.9-7.8-32.1-7.8-32.1C809.9,680.7,811.7,660.1,811.7,660.1z"/>
	<path class="st0" d="M1067,637.3c-3.7-8-6.3-16.5-8.7-24.9c-3.8-13.5-8.6-24.6-13.3-33.4c-9.7-18.1-24.5-33.3-42.8-42.7
		c-52.7-27.2-74.7,22.4-74.7,22.4l3.2-25.6l-67.1-3.4c24.1,18.8,13.7,35.9,13.7,35.9c14,0.4,21.3,12.7,21.3,12.7l24.8,41l-44.1,18.6
		c0,0-13.1,5.7-24.7-2.2c0,0-1.7,19.9-32.2,21l56.3,36.7l12.5-22.6c0,0-11.3,53,47.3,62c20.3,3.1,41.2-0.4,59.7-9.4
		c9-4.4,19.4-10.5,30.4-19.2c6.9-5.5,14-10.8,21.7-15.1c12.5-7.1,30.7-15,46.1-13.4C1083,667.5,1073,650.3,1067,637.3z
		 M1013.2,697.6c0,0-49.5,38.8-87,11.8c0,0-21.6-12.8-16.2-38.4c0,0,2.4-20.1,25.4-13.9c0,0,21.3,6.6-3.3,32c0,0,55,6,40.6-49.8
		c0,0,28.6,3.2,13.6,47.2c0,0,15.8-4.2,22.2-24.3c0,0,23.3,8.4,42.2-1.8c-9.3-19.3-33-26.3-33-26.3c6.6-20-3.7-32.7-3.7-32.7
		c-13.8,44.4-38.7,30.2-38.7,30.2c44.4-36.7-3.6-64.2-3.6-64.2c5,35.1-16.1,27.9-16.1,27.9c-22.3-8.5-12.4-26.2-12.4-26.2
		c10.7-23.9,35.6-21.5,35.6-21.5c46.2,0.2,63.5,60.7,63.5,60.7c12.4,38.4,25.9,54.9,29.6,59C1066.4,668.4,1045.8,673.9,1013.2,697.6
		z"/>
	<path class="st0" d="M840.4,620.2c0,0,14.3,7.5,33-2.5c0,0,9.4-5.7,17.6-9.2c-4.6-7.7-8.8-17.8-8.8-17.8
		c-9.2-19.1-25.2-21.4-25.2-21.4c10.9-16.7,0.2-34.3,0.2-34.3c-13.8,22.5-36.1,16.1-36.1,16.1c-10.1-9.1-18.7,1.5-18.7,1.5
		c-8.7,9.9-1.4,17.1-1.4,17.1c5.6,5.7,10.6,0.2,10.6,0.2c9.8,1.1,7.3,10.2,5.5,14.6c-1.1,4.6-4.4,13.4-13,8.6c0,0-0.9-7.4-8.7-6
		c0,0-10.1,1.5-8.9,14.6c0,0,0.7,13.6,14.2,12.2c0,0,21.9,7.9,19.7,34.2C820.4,648.1,839.4,640.1,840.4,620.2z"/>
	<path class="st0" d="M891.3,384.7L878.8,362l-56.3,36.7c30.6,1,32.2,21,32.2,21c11.6-7.9,24.7-2.2,24.7-2.2l44.1,18.6l-24.8,41
		c0,0-7.3,12.3-21.3,12.7c0,0,10.4,17.1-13.7,35.9l67.1-3.4l-3.2-25.6c0,0,22,49.6,74.7,22.4c18.2-9.4,33.1-24.6,42.8-42.7
		c4.7-8.8,9.5-19.9,13.3-33.4c2.4-8.5,5-16.9,8.7-24.9c6-13.1,16-30.2,29.4-38c-15.4,1.6-33.6-6.4-46.1-13.4
		c-7.7-4.3-14.8-9.6-21.7-15.1c-11-8.7-21.4-14.9-30.4-19.2c-18.5-9-39.4-12.5-59.7-9.4C880,331.6,891.3,384.7,891.3,384.7z
		 M1013.2,357.5c32.6,23.8,53.2,29.3,58.6,30.4c-3.7,4.1-17.2,20.7-29.6,59c0,0-17.2,60.5-63.5,60.7c0,0-25,2.3-35.6-21.5
		c0,0-9.9-17.7,12.4-26.2c0,0,21.1-7.2,16.1,27.9c0,0,48-27.5,3.6-64.2c0,0,25-14.2,38.7,30.2c0,0,10.3-12.7,3.7-32.7
		c0,0,23.8-6.9,33-26.3c-18.9-10.2-42.2-1.8-42.2-1.8c-6.4-20.1-22.2-24.3-22.2-24.3c14.9,44-13.6,47.2-13.6,47.2
		c14.3-55.8-40.6-49.8-40.6-49.8c24.7,25.4,3.3,32,3.3,32C912.4,404.2,910,384,910,384c-5.4-25.6,16.2-38.4,16.2-38.4
		C963.7,318.7,1013.2,357.5,1013.2,357.5z"/>
	<path class="st0" d="M882.1,464.4c0,0,4.2-10.1,8.8-17.8c-8.2-3.5-17.6-9.2-17.6-9.2c-18.7-10-33-2.5-33-2.5
		c-1-19.9-20-27.9-20-27.9c2.1,26.3-19.7,34.2-19.7,34.2c-13.5-1.4-14.2,12.2-14.2,12.2c-1.2,13.1,8.9,14.6,8.9,14.6
		c7.8,1.3,8.7-6,8.7-6c8.6-4.9,11.9,4,13,8.6c1.8,4.4,4.3,13.5-5.5,14.6c0,0-5-5.4-10.6,0.2c0,0-7.3,7.2,1.4,17.1
		c0,0,8.6,10.6,18.7,1.5c0,0,22.3-6.5,36.1,16.1c0,0,10.7-17.6-0.2-34.3C856.9,485.8,872.9,483.5,882.1,464.4z"/>
	<path class="st0" d="M759.7,265.4l-23.4-11l-23.9,62.8c25.3-17.1,38.4-2,38.4-2c4.7-13.2,18.7-16.3,18.7-16.3l46.6-10.9l4,47.7
		c0,0,1.4,14.2-9.7,22.8c0,0,18.5,7.7,10,37.1l52.3-42.2l-17.7-18.9c0,0,46.9,27.1,73.6-25.8c9.2-18.3,12.3-39.3,9.5-59.7
		c-1.4-9.9-4-21.7-8.9-34.9c-3.1-8.3-5.9-16.6-7.7-25.3c-2.8-14.1-4.8-33.8,1.5-48c-11.6,10.4-31,14.6-45.2,16.2
		c-8.8,1-17.6,0.9-26.4,0.5c-14-0.6-26.1,0.6-35.9,2.3c-20.2,3.6-39.2,13-53.8,27.5C719.3,229.1,759.7,265.4,759.7,265.4z
		 M765,213.3c14.5-43.9,77.3-41.6,77.3-41.6c40.3,0.1,60.2-7.6,65.3-9.9c-0.6,5.5-1.8,26.8,10.8,65.2c0,0,21.6,59-15.7,86.4
		c0,0-18.8,16.6-41.5,3.5c0,0-18.4-8.5-5.4-28.5c0,0,12.9-18.2,29.4,13.1c0,0,22.7-50.4-34.8-54c0,0,11.8-26.2,49.1,1.6
		c0,0,0.9-16.3-16.3-28.6c0,0,15.2-19.6,11.3-40.7c-21.3,2.8-35.2,23.3-35.2,23.3c-17-12.5-32.2-6.6-32.2-6.6
		c38,26.8,16.7,46.2,16.7,46.2c-21.2-53.6-62.2-16.4-62.2-16.4c34.9,6.1,21.5,24,21.5,24c-15,18.6-28.8,3.7-28.8,3.7
		C755.1,236.3,765,213.3,765,213.3z"/>
	<path class="st0" d="M715.3,382.6c6.7,11.3,15.8,6.6,15.8,6.6c7.1-3.5,3.5-10,3.5-10c4.1-9,12-3.7,15.6-0.7c4,2.5,11.4,8.4,4.2,15
		c0,0-7.3-1.4-8.4,6.4c0,0-1.7,10.1,11.1,13c0,0,13.1,3.5,16-9.8c0,0,14.3-18.4,38.7-8.2c0,0-1.7-20.5-20.4-27.6
		c0,0,11.6-11.2,7.8-32.1c0,0-2.5-10.7-3.3-19.6c-8.7,2-19.6,2.9-19.6,2.9c-21,2.9-28.1,17.4-28.1,17.4
		c-12.5-15.5-32.6-10.8-32.6-10.8c17.2,20,4.1,39.3,4.1,39.3C707.9,371.2,715.3,382.6,715.3,382.6z"/>
</g>
</svg>
