<svg width="175" height="175" viewBox="0 0 175 175" fill="none" xmlns="http://www.w3.org/2000/svg">
<g clip-path="url(#clip0)">
<path d="M54.8492 65.578C43.2248 65.3035 31.2114 59.7779 21.752 50.3189C11.9242 40.4907 6.35838 27.9583 6.48119 15.9344C6.49808 14.2993 7.81921 12.9778 9.45468 12.9609C9.58086 12.9597 9.70741 12.959 9.83397 12.959C21.7389 12.959 34.1331 18.5256 43.8392 28.2313C53.3173 37.7099 58.8295 49.7034 59.0995 61.33L84.9563 87.1868V70.1637C76.9258 61.7513 72.3428 49.3729 72.3428 35.9689C72.3428 22.0703 77.2687 9.27273 85.8579 0.857706C87.0262 -0.286553 88.8953 -0.286553 90.0628 0.857706C98.6521 9.27235 103.578 22.0699 103.578 35.9689C103.578 49.3733 98.995 61.7517 90.9645 70.1637V93.1954L107.109 109.34V95.3724C101.828 93.6509 98.0212 87.4628 98.0212 79.8833C98.0212 70.9291 103.333 63.9152 110.113 63.9152C116.894 63.9152 122.205 70.9291 122.205 79.8833C122.205 87.4632 118.399 93.6509 113.117 95.3724V115.348L133.536 135.767V121.799C128.255 120.078 124.448 113.89 124.448 106.31C124.448 97.3559 129.76 90.342 136.54 90.342C143.321 90.342 148.632 97.3559 148.632 106.31C148.632 113.89 144.826 120.078 139.544 121.799V141.775L167.64 169.871C168.813 171.044 168.813 172.946 167.64 174.119C167.053 174.706 166.284 174.999 165.515 174.999C164.746 174.999 163.977 174.706 163.391 174.119L148.575 159.303H128.467C126.746 164.585 120.558 168.391 112.978 168.391C104.024 168.391 97.0099 163.08 97.0099 156.299C97.0099 149.518 104.024 144.207 112.978 144.207C120.558 144.207 126.746 148.013 128.467 153.295H142.567L134.813 145.541C134.53 145.342 134.284 145.096 134.085 144.813L126.356 137.084H103.325C94.9125 145.115 82.5341 149.698 69.1301 149.698C55.2315 149.698 42.4335 144.772 34.0185 136.183C32.8743 135.015 32.8743 133.146 34.0185 131.978C42.4335 123.388 55.2315 118.463 69.1301 118.463C82.5341 118.463 94.9125 123.046 103.325 131.076H120.348L108.386 119.114C108.103 118.915 107.857 118.669 107.658 118.387L79.2042 89.9327H59.0965C57.375 95.2142 51.1869 99.0207 43.6075 99.0207C34.6532 99.0207 27.6393 93.7091 27.6393 86.9284C27.6393 80.1477 34.6532 74.8365 43.6075 74.8365C51.1873 74.8365 57.375 78.643 59.0965 83.9241H73.1956L54.8492 65.578ZM87.9606 7.42321C81.9002 14.6369 78.3513 25.0633 78.3513 35.9696C78.3513 46.8759 81.9002 57.3023 87.9606 64.516C94.021 57.3027 97.5698 46.8763 97.5698 35.9696C97.5698 25.0629 94.021 14.6365 87.9606 7.42321ZM116.198 79.8837C116.198 74.5781 113.355 69.9241 110.114 69.9241C106.873 69.9241 104.031 74.5781 104.031 79.8837C104.031 85.1893 106.873 89.8433 110.114 89.8433C113.355 89.8433 116.198 85.1893 116.198 79.8837ZM142.624 106.311C142.624 101.005 139.782 96.351 136.541 96.351C133.3 96.351 130.457 101.005 130.457 106.311C130.457 111.616 133.3 116.27 136.541 116.27C139.782 116.27 142.624 111.616 142.624 106.311ZM112.978 150.216C107.673 150.216 103.019 153.059 103.019 156.3C103.019 159.541 107.673 162.383 112.978 162.383C118.284 162.383 122.938 159.541 122.938 156.3C122.938 153.059 118.284 150.216 112.978 150.216ZM69.1304 124.472C58.2237 124.472 47.7973 128.02 40.5836 134.081C47.7973 140.141 58.2237 143.69 69.1304 143.69C80.0368 143.69 90.4632 140.141 97.6768 134.081C90.4628 128.02 80.0368 124.472 69.1304 124.472ZM43.6078 80.8455C38.3023 80.8455 33.6482 83.6879 33.6482 86.9288C33.6482 90.1697 38.3023 93.0125 43.6078 93.0125C48.9134 93.0125 53.5675 90.1697 53.5675 86.9288C53.5675 83.6879 48.9134 80.8455 43.6078 80.8455ZM39.59 32.4805C31.7694 24.66 22.0757 19.8768 12.6096 19.0847C13.4241 28.4717 18.2877 38.3565 26.0008 46.0697C33.8214 53.8906 43.5151 58.6734 52.9812 59.4654C52.1671 50.0789 47.3031 40.1936 39.59 32.4805Z" fill="#501B38"/>
</g>
<defs>
<clipPath id="clip0">
<rect width="175" height="175" fill="white" transform="matrix(-1 0 0 1 175 0)"/>
</clipPath>
</defs>
</svg>
