<svg width="175" height="175" viewBox="0 0 175 175" fill="none" xmlns="http://www.w3.org/2000/svg">
<g clip-path="url(#clip0)">
<path d="M120.151 65.578C131.775 65.3035 143.789 59.7779 153.248 50.3189C163.076 40.4907 168.642 27.9583 168.519 15.9344C168.502 14.2993 167.181 12.9778 165.545 12.9609C165.419 12.9597 165.293 12.959 165.166 12.959C153.261 12.959 140.867 18.5256 131.161 28.2313C121.683 37.7099 116.171 49.7034 115.901 61.33L90.0437 87.1868V70.1637C98.0742 61.7513 102.657 49.3729 102.657 35.9689C102.657 22.0703 97.7313 9.27273 89.1421 0.857706C87.9738 -0.286553 86.1047 -0.286553 84.9372 0.857706C76.3479 9.27235 71.422 22.0699 71.422 35.9689C71.422 49.3733 76.005 61.7517 84.0355 70.1637V93.1954L67.8912 109.34V95.3724C73.1724 93.6509 76.9788 87.4628 76.9788 79.8833C76.9788 70.9291 71.6672 63.9152 64.8869 63.9152C58.1058 63.9152 52.7946 70.9291 52.7946 79.8833C52.7946 87.4632 56.6011 93.6509 61.8826 95.3724V115.348L41.4643 135.767V121.799C46.7455 120.078 50.5519 113.89 50.5519 106.31C50.5519 97.3559 45.2403 90.342 38.46 90.342C31.679 90.342 26.3678 97.3559 26.3678 106.31C26.3678 113.89 30.1742 120.078 35.4557 121.799V141.775L7.36035 169.871C6.18717 171.044 6.18717 172.946 7.36035 174.119C7.94694 174.706 8.71566 174.999 9.48476 174.999C10.2539 174.999 11.0226 174.706 11.6092 174.119L26.4252 159.303H46.5329C48.2544 164.585 54.4425 168.391 62.0219 168.391C70.9762 168.391 77.9901 163.08 77.9901 156.299C77.9901 149.518 70.9759 144.207 62.0219 144.207C54.4421 144.207 48.2544 148.013 46.5329 153.295H32.4334L40.1875 145.541C40.4699 145.342 40.7159 145.096 40.9149 144.813L48.6438 137.084H71.6751C80.0875 145.115 92.4659 149.698 105.87 149.698C119.769 149.698 132.566 144.772 140.981 136.183C142.126 135.015 142.126 133.146 140.981 131.978C132.566 123.388 119.769 118.463 105.87 118.463C92.4659 118.463 80.0875 123.046 71.6751 131.076H54.6524L66.6144 119.114C66.8968 118.915 67.1428 118.669 67.3418 118.387L95.7958 89.9327H115.904C117.625 95.2142 123.813 99.0207 131.393 99.0207C140.347 99.0207 147.361 93.7091 147.361 86.9284C147.361 80.1477 140.347 74.8365 131.393 74.8365C123.813 74.8365 117.625 78.643 115.904 83.9241H101.804L120.151 65.578ZM87.0394 7.42321C93.0998 14.6369 96.6487 25.0633 96.6487 35.9696C96.6487 46.8759 93.0998 57.3023 87.0394 64.516C80.979 57.3027 77.4302 46.8763 77.4302 35.9696C77.4302 25.0629 80.979 14.6365 87.0394 7.42321ZM58.8025 79.8837C58.8025 74.5781 61.6453 69.9241 64.8862 69.9241C68.127 69.9241 70.9695 74.5781 70.9695 79.8837C70.9695 85.1893 68.127 89.8433 64.8862 89.8433C61.6453 89.8433 58.8025 85.1893 58.8025 79.8837ZM32.3756 106.311C32.3756 101.005 35.2184 96.351 38.4593 96.351C41.7002 96.351 44.5426 101.005 44.5426 106.311C44.5426 111.616 41.7002 116.27 38.4593 116.27C35.2184 116.27 32.3756 111.616 32.3756 106.311ZM62.0216 150.216C67.3271 150.216 71.9812 153.059 71.9812 156.3C71.9812 159.541 67.3268 162.383 62.0216 162.383C56.7164 162.383 52.062 159.541 52.062 156.3C52.062 153.059 56.716 150.216 62.0216 150.216ZM105.87 124.472C116.776 124.472 127.203 128.02 134.416 134.081C127.203 140.141 116.776 143.69 105.87 143.69C94.9632 143.69 84.5368 140.141 77.3232 134.081C84.5372 128.02 94.9632 124.472 105.87 124.472ZM131.392 80.8455C136.698 80.8455 141.352 83.6879 141.352 86.9288C141.352 90.1697 136.698 93.0125 131.392 93.0125C126.087 93.0125 121.433 90.1697 121.433 86.9288C121.433 83.6879 126.087 80.8455 131.392 80.8455ZM135.41 32.4805C143.231 24.66 152.924 19.8768 162.39 19.0847C161.576 28.4717 156.712 38.3565 148.999 46.0697C141.179 53.8906 131.485 58.6734 122.019 59.4654C122.833 50.0789 127.697 40.1936 135.41 32.4805Z" fill="#501B38"/>
</g>
<defs>
<clipPath id="clip0">
<rect width="175" height="175" fill="white"/>
</clipPath>
</defs>
</svg>
