<svg width="496" height="496" viewBox="0 0 496 496" fill="none" xmlns="http://www.w3.org/2000/svg">
<path d="M0 248C0 111.055 111.055 0 248 0C384.945 0 496 111.055 496 248C496 384.945 384.945 496 248 496C111.055 496 0 384.945 0 248Z" fill="#FFEFD6"/>
<path d="M460.314 311.175C456.016 313.274 444.921 314.673 439.723 318.072C436.724 320.071 430.726 323.769 427.228 323.57C421.43 323.27 419.131 319.771 417.532 319.471C407.736 317.172 380.547 323.17 374.549 322.87C364.653 322.27 368.851 303.478 372.45 303.678C401.738 305.177 416.432 307.076 421.53 307.876C421.53 307.876 452.018 305.877 455.816 306.277C458.315 306.377 463.913 309.275 460.314 311.175Z" fill="#F4B382"/>
<path d="M342.462 320.471C353.857 322.17 364.853 322.87 374.749 322.77C373.549 319.471 373.449 306.576 374.349 303.578C370.751 303.278 343.162 298.68 343.162 298.68C334.365 297.38 282.986 289.383 266.892 291.383C262.694 291.782 259.096 292.382 255.997 293.182C250.099 294.681 268.292 323.17 268.292 323.17C283.586 324.369 310.975 319.971 319.071 319.071C327.268 318.272 342.462 320.471 342.462 320.471Z" fill="#3D3C3C"/>
<path d="M205.917 303.178C209.815 310.875 213.914 315.573 217.212 318.472C221.011 321.77 224.21 323.769 234.206 323.769C242.302 323.769 247.9 320.471 247.9 320.471C247.9 320.471 253.498 323.769 261.595 323.769C271.591 323.769 274.789 321.77 278.588 318.472C281.886 315.573 285.985 310.975 289.883 303.178H205.917Z" fill="#3D3C3C"/>
<path d="M35.6854 311.175C39.9837 313.274 51.0792 314.673 56.2771 318.072C59.2759 320.071 65.2735 323.769 68.772 323.57C74.5697 323.27 76.8688 319.771 78.4681 319.471C88.2642 317.172 115.453 323.17 121.451 322.87C131.347 322.27 127.149 303.478 123.55 303.678C94.2618 305.177 79.5677 307.076 74.4697 307.876C74.4697 307.876 43.982 305.877 40.1836 306.277C37.6846 306.377 32.0868 309.275 35.6854 311.175Z" fill="#F4B382"/>
<path d="M153.538 320.471C142.143 322.17 131.147 322.87 121.251 322.77C122.45 319.471 122.55 306.576 121.651 303.578C125.249 303.278 152.838 298.68 152.838 298.68C161.635 297.38 213.014 289.383 229.107 291.383C233.306 291.782 236.904 292.382 240.003 293.182C245.901 294.681 227.708 323.17 227.708 323.17C212.414 324.369 185.025 319.971 176.929 319.071C168.732 318.272 153.538 320.471 153.538 320.471Z" fill="#3D3C3C"/>
<path d="M220.311 289.383L221.511 309.675C221.511 309.675 238.404 316.372 245.701 316.372C252.998 316.372 274.489 309.675 274.489 309.675L275.689 289.383H220.311Z" fill="#3D3C3C"/>
<path d="M85.9653 188.624C85.9653 184.925 101.759 186.925 106.557 185.925L112.155 188.524C146.841 186.425 163.034 189.024 163.034 189.024C183.726 186.825 220.911 188.124 228.708 189.524C233.406 190.323 229.108 210.915 223.21 210.915C214.214 210.015 169.931 202.618 163.034 201.819C162.135 201.719 112.055 197.021 112.055 197.021C112.055 197.021 110.056 197.021 106.657 198.22C102.059 199.819 95.1616 199.42 91.4631 197.62C88.4643 196.121 85.9653 192.322 85.9653 188.624Z" fill="#F4B382"/>
<path d="M101.659 188.224C101.659 188.224 96.6608 188.624 96.161 186.025C95.7612 183.826 95.8612 183.026 106.457 186.725C106.457 186.725 106.257 188.224 101.659 188.224Z" fill="#F4B382"/>
<path d="M410.035 188.624C410.035 184.925 394.241 186.925 389.443 185.925L383.845 188.524C349.159 186.425 332.966 189.024 332.966 189.024C312.274 186.825 275.089 188.124 267.292 189.524C262.594 190.323 266.892 210.915 272.79 210.915C281.786 210.015 326.068 202.618 332.966 201.819C333.865 201.719 383.945 197.021 383.945 197.021C383.945 197.021 385.944 197.021 389.343 198.22C393.941 199.819 400.838 199.42 404.537 197.62C407.536 196.121 410.035 192.322 410.035 188.624Z" fill="#F4B382"/>
<path d="M394.341 188.224C394.341 188.224 399.339 188.624 399.839 186.025C400.239 183.826 400.139 183.026 389.543 186.725C389.543 186.725 389.743 188.224 394.341 188.224Z" fill="#F4B382"/>
<path d="M274.489 222.11C276.388 210.615 266.992 189.724 266.992 189.724C262.494 189.124 257.896 188.924 254.297 188.924H241.702C238.104 188.924 233.506 189.124 229.008 189.724C229.008 189.724 219.611 210.715 221.511 222.11C223.31 232.806 226.309 248.5 220.311 289.383H248H275.689C269.691 248.5 272.69 232.806 274.489 222.11Z" fill="#501B38"/>
<path d="M256.397 177.428H239.504C242.103 185.425 239.704 189.024 239.704 189.024C239.704 189.024 240.204 194.222 248 194.222C255.697 194.222 256.197 189.024 256.197 189.024C256.197 189.024 253.798 185.325 256.397 177.428Z" fill="#E2A379"/>
<path d="M265.293 154.138C265.293 134.046 257.496 129.448 248 129.448C238.504 129.448 230.707 134.046 230.707 154.138C230.707 160.935 231.907 166.233 233.706 170.331C237.704 179.328 244.601 182.526 248 182.526C251.399 182.526 258.296 179.328 262.294 170.331C264.094 166.333 265.293 160.935 265.293 154.138Z" fill="#F4B382"/>
<path d="M252.898 174.33C252.898 174.33 250.699 175.429 248 175.429C245.301 175.429 243.102 174.33 243.102 174.33C243.102 174.03 244.701 172.231 245.701 172.131C246.3 172.031 248 172.63 248 172.63C248 172.63 249.599 172.031 250.299 172.131C251.298 172.231 252.898 174.33 252.898 174.33Z" fill="#D6876B"/>
<path d="M252.898 174.33C252.898 174.33 250.699 176.329 248 176.329C245.301 176.329 243.102 174.33 243.102 174.33C243.102 174.33 243.601 173.73 246.5 173.53C247 173.53 247.6 173.93 248 173.93C248.399 173.93 248.899 173.53 249.299 173.53C252.298 173.73 252.898 174.33 252.898 174.33Z" fill="#CC785E"/>
<path d="M248.001 136.645C253.024 136.645 257.097 133.87 257.097 130.447C257.097 127.025 253.024 124.25 248.001 124.25C242.977 124.25 238.904 127.025 238.904 130.447C238.904 133.87 242.977 136.645 248.001 136.645Z" fill="#CAB69E"/>
<path d="M265.993 155.038C265.993 134.946 260.495 129.548 248 129.548C235.505 129.548 230.007 135.046 230.007 155.038C230.007 155.038 256.697 149.24 256.697 141.943C256.697 149.24 265.993 155.038 265.993 155.038Z" fill="#CAB69E"/>
<path d="M229.008 161.235C229.908 166.733 231.107 166.933 232.806 166.633L231.007 154.738C229.308 155.037 228.008 155.737 229.008 161.235Z" fill="#F4B382"/>
<path d="M264.994 154.738L263.194 166.633C264.894 166.933 265.993 166.633 266.993 161.235C267.992 155.737 266.693 155.037 264.994 154.738Z" fill="#F4B382"/>
<path d="M232.007 155.937C231.907 155.337 231.907 154.838 231.907 154.338C231.907 153.738 232.007 153.338 232.007 153.338L230.007 154.138C230.007 154.438 230.007 154.738 230.007 155.037C230.007 155.037 230.207 154.937 230.607 154.838C230.607 154.838 230.607 154.838 230.507 154.838C230.807 155.337 231.107 156.037 231.507 157.137C231.507 157.137 232.306 157.736 232.007 155.937Z" fill="#CAB69E"/>
<path d="M263.993 154.338C263.993 154.738 263.993 155.337 263.893 155.837C263.594 157.637 264.393 157.037 264.393 157.037C264.693 155.937 265.093 155.237 265.393 154.738C265.793 154.838 265.993 154.938 265.993 154.938C265.993 154.638 265.993 154.338 265.993 154.038L263.993 153.238C263.893 153.338 263.993 153.738 263.993 154.338Z" fill="#CAB69E"/>
</svg>
